<svg width="67" height="78" viewBox="0 0 67 78" fill="none" xmlns="http://www.w3.org/2000/svg">
<g id="pricing-tab-4 1" clip-path="url(#clip0_6411_9659)">
<path id="Vector" d="M36.408 21.5373V1.55225H29.4777V21.5373C21.6173 23.1866 15.7568 30.4627 15.7568 39.0971C15.7568 48.9926 23.4778 57.0448 32.9662 57.0448C42.4545 57.0448 50.1754 48.9926 50.1754 39.0971C50.1289 30.4627 44.2685 23.1866 36.408 21.5373Z" fill="#ECF4FF"/>
<path id="Vector_2" d="M39.0114 2.18284C39.0114 3.39552 38.0812 4.36567 36.9183 4.36567H29.0114C27.8951 4.36567 26.9648 3.39552 26.9648 2.18284C26.9648 0.970149 27.8951 0 29.0579 0H36.9648C38.0812 0 39.0114 0.970149 39.0114 2.18284Z" fill="#9CC8FF"/>
<path id="Vector_3" d="M38.2227 30.9964C38.2227 29.7351 39.1995 28.668 40.4552 28.668C41.6645 28.668 42.6878 29.6866 42.6878 30.9964C42.6878 32.2575 41.711 33.3247 40.4552 33.3247C39.246 33.3247 38.2227 32.2575 38.2227 30.9964Z" fill="#FFB948"/>
<path id="Vector_4" d="M32.7803 27.8916C32.7803 27.2124 33.3384 26.6304 33.9895 26.6304C34.6407 26.6304 35.1988 27.2124 35.1988 27.8916C35.1988 28.5707 34.6872 29.1528 33.9895 29.1528C33.2919 29.1043 32.7803 28.5707 32.7803 27.8916Z" fill="#FFB948"/>
<path id="Vector_5" d="M35.0127 35.1196C35.0127 34.4405 35.5243 33.8584 36.222 33.8584C36.8732 33.8584 37.4313 34.392 37.4313 35.1196C37.4313 35.7987 36.8732 36.3808 36.222 36.3808C35.5708 36.3323 35.0127 35.7987 35.0127 35.1196Z" fill="#FFB948"/>
<path id="Vector_6" d="M28.0361 33.325C28.0361 32.0637 29.0129 30.9966 30.2687 30.9966C31.478 30.9966 32.5013 32.0152 32.5013 33.325C32.5013 34.5861 31.5245 35.6533 30.2687 35.6533C29.0129 35.6048 28.0361 34.5861 28.0361 33.325Z" fill="#FFB948"/>
<path id="Vector_7" d="M25.71 27.4552C25.71 26.6306 26.3611 26 27.1053 26C27.896 26 28.5007 26.6791 28.5007 27.4552C28.5007 28.2799 27.8494 28.9105 27.1053 28.9105C26.3611 28.9105 25.71 28.2314 25.71 27.4552Z" fill="#FFB948"/>
<path id="Vector_8" d="M31.1062 34.9739C26.6876 32.8881 21.9434 32.7911 18.2224 33.2761C17.5713 35.071 17.1992 37.0597 17.1992 39.0971C17.1992 48.071 24.1759 55.3471 32.7806 55.3471C41.3852 55.3471 48.362 48.071 48.362 39.0971C48.362 37.3022 48.0829 35.556 47.5713 33.9067C42.7806 35.8471 36.269 37.4478 31.1062 34.9739Z" fill="#FF8415"/>
<path id="Vector_9" d="M47.7076 33.9556C42.9634 35.8474 36.4518 37.4482 31.289 35.0228C26.8704 32.9369 22.1262 32.8399 18.4053 33.325C18.4053 33.325 23.4286 33.325 29.4751 37.6422C35.5215 41.9593 44.3587 38.7093 47.7076 33.9556Z" fill="#FFB948"/>
<path id="Vector_10" d="M15.5232 40.4068C12.0814 52.2912 8.63952 64.1755 5.19765 76.0598C4.77905 77.4666 6.87208 78.0486 7.24417 76.6419C10.6861 64.7576 14.1279 52.8732 17.5698 40.9889C17.9884 39.6307 15.9418 39.0486 15.5232 40.4068Z" fill="#ECF4FF"/>
<path id="Vector_11" d="M51.2902 40.4068C54.732 52.2912 58.1739 64.1755 61.6157 76.0598C62.0343 77.4666 59.9413 78.0486 59.5692 76.6419C56.1273 64.7576 52.6855 52.8732 49.2436 40.9889C48.825 39.6307 50.8715 39.0486 51.2902 40.4068Z" fill="#ECF4FF"/>
<path id="Vector_12" d="M58.1284 40.6977C58.1284 42.2014 56.9656 43.3656 55.5702 43.3656H11.2447C9.80277 43.3656 8.68652 42.1529 8.68652 40.6977C8.68652 39.1939 9.84936 38.0298 11.2447 38.0298H55.5237C56.9656 38.0298 58.1284 39.2424 58.1284 40.6977Z" fill="#9CC8FF"/>
<path id="Vector_13" d="M0.732558 73.2946C25.6628 73.2946 41.2907 73.2946 66.2674 73.2946C67.2442 73.2946 67.2442 71.6938 66.2674 71.6938C41.3372 71.6938 25.7093 71.6938 0.732558 71.6938C-0.244186 71.6938 -0.244186 73.2946 0.732558 73.2946Z" fill="#9CC8FF"/>
<path id="Vector_14" d="M43.4311 68.9292H22.7334V71.6941H43.4311V68.9292Z" fill="#8044E0"/>
<path id="Vector_15" d="M33.0572 69.4628C33.0572 69.4628 33.0107 69.4143 32.9176 69.3658C32.8246 69.2687 32.6851 69.1717 32.5456 69.0262C32.2665 68.7352 31.8944 68.3471 31.5688 67.8621C31.2433 67.377 30.9642 66.7949 30.7781 66.2128C30.592 65.6307 30.499 64.9516 30.499 64.321C30.499 63.6904 30.592 63.0114 30.7781 62.4292C30.9642 61.8471 31.2433 61.265 31.5688 60.78C31.8944 60.2949 32.22 59.9069 32.5456 59.6158C32.6851 59.4702 32.8246 59.3732 32.9176 59.2762C33.0107 59.1792 33.0572 59.1792 33.0572 59.1792C33.0572 59.1792 33.1037 59.2277 33.1967 59.2762C33.2897 59.3732 33.4293 59.4702 33.5688 59.6158C33.8479 59.9069 34.22 60.2949 34.5456 60.78C34.8712 61.265 35.1502 61.8471 35.3363 62.4292C35.5223 63.0114 35.6153 63.6904 35.6153 64.321C35.6153 64.9516 35.5223 65.6307 35.3363 66.2128C35.1502 66.7949 34.8712 67.377 34.5456 67.8621C34.22 68.3471 33.8944 68.7352 33.5688 69.0262C33.4293 69.1717 33.2897 69.2687 33.1967 69.3658C33.1502 69.4143 33.0572 69.4628 33.0572 69.4628Z" fill="#FF8415"/>
<path id="Vector_16" d="M33.0573 68.8807C33.0573 68.8807 33.0108 68.8322 32.9642 68.7837C32.9177 68.7352 32.8247 68.6382 32.7317 68.5897C32.5457 68.3957 32.3131 68.1531 32.0805 67.8136C31.8944 67.474 31.6619 67.1345 31.5689 66.6979C31.4293 66.3099 31.3828 65.8733 31.3828 65.4367C31.3828 65.0001 31.4293 64.5636 31.5689 64.1755C31.7084 63.7875 31.8944 63.3994 32.0805 63.0599C32.3131 62.7203 32.5457 62.4777 32.7317 62.2837C32.8247 62.1867 32.9177 62.1382 32.9642 62.0897C33.0108 62.0412 33.0573 61.9927 33.0573 61.9927C33.0573 61.9927 33.1038 62.0412 33.1503 62.0897C33.1968 62.1382 33.2898 62.2352 33.3828 62.2837C33.5689 62.4777 33.8014 62.7203 34.034 63.0599C34.2665 63.3994 34.4526 63.739 34.5456 64.1755C34.6851 64.5636 34.7316 65.0001 34.7316 65.4367C34.7316 65.8733 34.6851 66.3099 34.5456 66.6979C34.4061 67.086 34.22 67.474 34.034 67.8136C33.8479 68.1531 33.5689 68.3957 33.3828 68.5897C33.2898 68.6867 33.1968 68.7352 33.1503 68.7837C33.1038 68.8322 33.0573 68.8807 33.0573 68.8807Z" fill="#FFD217"/>
</g>
<defs>
<clipPath id="clip0_6411_9659">
<rect width="67" height="78" fill="white"/>
</clipPath>
</defs>
</svg>
