<svg width="101" height="80" viewBox="0 0 101 80" fill="none" xmlns="http://www.w3.org/2000/svg">
<g id="ava5">
<path id="Vector" fill-rule="evenodd" clip-rule="evenodd" d="M62.7311 3.01176C74.6195 2.5937 88.528 -4.70088 96.5977 5.05264C104.856 15.0344 99.521 30.641 96.4741 43.7956C93.5849 56.2697 90.3425 69.5446 80.224 75.7446C69.5665 82.2748 56.591 80.7043 45.5637 74.9903C34.3189 69.1637 24.8151 59.0524 22.001 45.5757C19.1729 32.0313 22.3432 16.849 31.4386 7.344C39.5112 -1.09205 51.6783 3.40044 62.7311 3.01176Z" fill="#FF6893"/>
<g id="Mask group">
<mask id="mask0_6330_16994" style="mask-type:alpha" maskUnits="userSpaceOnUse" x="21" y="0" width="80" height="80">
<path id="Vector_2" fill-rule="evenodd" clip-rule="evenodd" d="M62.7311 3.01176C74.6195 2.5937 88.528 -4.70088 96.5977 5.05264C104.856 15.0344 99.521 30.641 96.4741 43.7956C93.5849 56.2697 90.3425 69.5446 80.224 75.7446C69.5665 82.2748 56.591 80.7043 45.5637 74.9903C34.3189 69.1637 24.8151 59.0524 22.001 45.5757C19.1729 32.0313 22.3432 16.849 31.4386 7.344C39.5112 -1.09205 51.6783 3.40044 62.7311 3.01176Z" fill="#FF6893"/>
</mask>
<g mask="url(#mask0_6330_16994)">
<g id="Group 13">
<path id="Vector_3" d="M62.2311 15.6451C57.1251 15.6536 54.6488 11.8482 50.8126 8.44159C48.2378 6.15528 42.5461 7.11058 39.3006 9.33688C31.0816 14.9752 30.4769 6.5626 23.1265 3.29843C1.8069 -6.169 -3.40824 26.7982 3.85758 38.9418C7.61854 45.228 14.0664 50.1594 21.3028 52.592C35.9171 57.5045 32.5967 48.6731 38.3628 47.6786C43.2061 46.8433 45.7859 52.4445 54.5977 48.9773C64.1312 45.2259 70.6898 42.7103 72.7989 37.124C76.3051 27.8369 70.1498 15.6318 62.2311 15.6451Z" fill="#FF9D00"/>
<path id="Vector_4" d="M61.0894 51.2802C61.0894 51.2802 63.5551 51.2858 64.3595 51.4381C66.3635 51.8175 70.2387 53.4253 71.9175 54.51C77.6208 58.1957 90.9447 70.1045 90.9447 70.1045C90.9447 70.1045 87.6077 73.7316 85.254 76.001C82.2893 78.8594 79.9089 82.2659 79.9089 82.2659C79.9089 82.2659 73.5842 75.2948 68.0365 68.6392C61.1618 60.3916 61.0894 51.2802 61.0894 51.2802Z" fill="#C071C4"/>
<path id="Vector_5" d="M78.1805 95.9356C77.1558 84.4105 77.5162 70.1714 77.249 68.4476C76.8179 65.6651 67.5914 51.5762 63.9178 51.3644C59.7249 51.1227 51.6687 51.9697 51.6687 51.9697C51.6687 51.9697 47.3067 52.5567 41.9766 55.9728L42.7179 81.8994C42.7179 81.8994 51.9716 99.1215 51.432 103.624C50.8928 108.127 47.0657 118.424 47.0657 118.424C47.0657 118.424 55.9266 125.68 72.446 122.9C79.079 121.784 81.6305 120.157 81.6305 120.157C81.6305 120.157 78.8099 103.011 78.1805 95.9356Z" fill="#DE8FE2"/>
<path id="Vector_6" d="M56.1588 40.1515C56.1588 40.1515 56.0266 41.7778 55.7777 43.822C55.478 46.2791 54.5017 50.2354 53.8898 51.8013C52.7682 54.6696 56.0328 64.4507 62.3362 66.2424C68.6391 68.0339 62.9097 53.713 63.1273 50.6566C63.3452 47.6 65.7192 38.6116 65.7192 38.6116L56.1588 40.1515Z" fill="#FFE1A1"/>
<path id="Vector_7" d="M64.5874 43.1379C65.1771 40.6626 65.7186 38.6117 65.7186 38.6117L56.1585 40.1513C56.1585 40.1513 56.0278 41.7641 55.7804 43.7963C59.2783 45.5661 62.3445 44.9584 64.5874 43.1379Z" fill="#F47458"/>
<path id="Vector_8" d="M58.8645 18.6484C58.8645 18.6484 55.1 19.5286 52.8174 23.0759C50.5348 26.6229 49.0788 37.0127 56.825 41.7783C60.8222 44.2373 64.3215 43.5879 66.7735 41.4657C69.0735 39.4745 69.2882 35.3202 69.2911 32.0861C69.2979 25.4044 68.8924 17.3699 58.8645 18.6484Z" fill="#FFE1A1"/>
<path id="Vector_9" d="M52.8233 32.3634C53.4042 34.0944 52.9184 35.8095 51.7386 36.1941C50.5584 36.5786 49.1306 35.487 48.55 33.7558C47.9692 32.0248 48.4549 30.3099 49.6348 29.9251C50.8152 29.5407 52.2427 30.6322 52.8233 32.3634Z" fill="#FFE1A1"/>
<path id="Vector_10" d="M67.8462 30.2176C67.8115 28.4801 68.6121 27.0581 69.6341 27.0418C70.6561 27.0257 71.5128 28.4208 71.5474 30.1586C71.5819 31.8963 70.7814 33.3181 69.7595 33.3342C68.7374 33.3505 67.881 31.9551 67.8462 30.2176Z" fill="#FFE1A1"/>
<path id="Vector_11" d="M57.8541 84.4371C57.0652 76.6588 55.0652 64.2169 52.7396 59.8111C51.667 57.7787 47.3143 55.0468 45.0184 54.9483C44.2512 54.9156 42.3456 55.6184 42.3456 55.6184C39.0843 57.6888 37.0332 61.6279 36.6084 65.4674C36.6055 65.4917 36.6029 65.5161 36.6005 65.5406C35.8671 72.3048 38.3688 82.8408 40.2232 89.4276C46.0432 87.4732 52.6356 87.5019 57.8541 84.4371Z" fill="#C071C4"/>
</g>
</g>
</g>
<g id="Group 14">
<path id="Vector_12" d="M62.2311 15.6451C57.1251 15.6536 54.6488 11.8482 50.8126 8.44159C48.2378 6.15528 42.5461 7.11058 39.3006 9.33688C31.0816 14.9752 30.4769 6.5626 23.1265 3.29843C1.8069 -6.169 -3.40824 26.7982 3.85758 38.9418C7.61854 45.228 14.0664 50.1594 21.3028 52.592C35.9171 57.5045 32.5967 48.6731 38.3628 47.6786C43.2061 46.8433 45.7859 52.4445 54.5977 48.9773C64.1312 45.2259 70.6898 42.7103 72.7989 37.124C76.3051 27.8369 70.1498 15.6318 62.2311 15.6451Z" fill="#FF9D00"/>
<path id="Vector_13" d="M56.1588 40.1515C56.1588 40.1515 56.0266 41.7778 55.7777 43.822C55.478 46.2791 54.5017 50.2354 53.8898 51.8013C52.7682 54.6696 56.0328 64.4507 62.3362 66.2424C68.6391 68.0339 62.9097 53.713 63.1273 50.6566C63.3452 47.6 65.7192 38.6116 65.7192 38.6116L56.1588 40.1515Z" fill="#FFE1A1"/>
<path id="Vector_14" d="M64.5874 43.1379C65.1771 40.6626 65.7186 38.6117 65.7186 38.6117L56.1585 40.1513C56.1585 40.1513 56.0278 41.7641 55.7804 43.7963C59.2783 45.5661 62.3445 44.9584 64.5874 43.1379Z" fill="#F47458"/>
<path id="Vector_15" d="M58.8645 18.6484C58.8645 18.6484 55.1 19.5286 52.8174 23.0759C50.5348 26.6229 49.0788 37.0127 56.825 41.7783C60.8222 44.2373 64.3215 43.5879 66.7735 41.4657C69.0735 39.4745 69.2882 35.3202 69.2911 32.0861C69.2979 25.4044 68.8924 17.3699 58.8645 18.6484Z" fill="#FFE1A1"/>
<path id="Vector_16" d="M52.8233 32.3634C53.4042 34.0944 52.9184 35.8095 51.7386 36.1941C50.5584 36.5786 49.1306 35.487 48.55 33.7558C47.9692 32.0248 48.4549 30.3099 49.6348 29.9251C50.8152 29.5407 52.2427 30.6322 52.8233 32.3634Z" fill="#FFE1A1"/>
<path id="Vector_17" d="M67.8462 30.2176C67.8115 28.4801 68.6121 27.0581 69.6341 27.0418C70.6561 27.0257 71.5128 28.4208 71.5474 30.1586C71.5819 31.8963 70.7814 33.3181 69.7595 33.3342C68.7374 33.3505 67.881 31.9551 67.8462 30.2176Z" fill="#FFE1A1"/>
</g>
</g>
</svg>
