<svg width="80" height="80" viewBox="0 0 80 80" fill="none" xmlns="http://www.w3.org/2000/svg">
<g id="ava6">
<path id="Vector" fill-rule="evenodd" clip-rule="evenodd" d="M35.4223 0.0071508C46.2886 0.283452 53.013 9.93479 60.3656 17.5818C68.8686 26.4253 81.151 34.3315 79.9133 46.28C78.5705 59.2435 66.7536 68.6981 54.4819 74.3827C42.1628 80.0894 27.32 82.6992 15.4837 76.126C4.35957 69.9483 1.6015 56.4735 0.228011 44.2533C-0.914233 34.0905 2.28239 24.4083 8.75613 16.2695C15.4683 7.831 24.3307 -0.274878 35.4223 0.0071508Z" fill="#58CAFF"/>
<g id="Mask group">
<mask id="mask0_6330_16997" style="mask-type:alpha" maskUnits="userSpaceOnUse" x="0" y="0" width="80" height="80">
<path id="Vector_2" fill-rule="evenodd" clip-rule="evenodd" d="M35.4223 0.0071508C46.2886 0.283452 53.013 9.93479 60.3656 17.5818C68.8686 26.4253 81.151 34.3315 79.9133 46.28C78.5705 59.2435 66.7536 68.6981 54.4819 74.3827C42.1628 80.0894 27.32 82.6992 15.4837 76.126C4.35957 69.9483 1.6015 56.4735 0.228011 44.2533C-0.914233 34.0905 2.28239 24.4083 8.75613 16.2695C15.4683 7.831 24.3307 -0.274878 35.4223 0.0071508Z" fill="#58CAFF"/>
</mask>
<g mask="url(#mask0_6330_16997)">
<g id="Group 16">
<path id="Vector_3" d="M8.13267 62.2336C5.59999 64.1697 15.6526 112.378 12.8605 120.799C10.0685 129.22 4.69298 142.888 4.69298 142.888L44.9249 134.319C44.9249 134.319 47.357 118.49 50.3073 111.088C53.3049 103.571 56.8633 63.7564 52.5445 56.3575C48.2259 48.9586 10.6654 60.2977 8.13267 62.2336Z" fill="#F47458"/>
<path id="Vector_4" d="M52.5432 56.3573L72.1212 79.6733C72.1212 79.6733 60.4675 81.5385 56.1711 88.0928L54.3838 86.3905L52.5432 56.3573Z" fill="#B75742"/>
<path id="Vector_5" d="M28.8549 43.6028L24.5426 57.6717C24.5426 57.6717 29.3036 67.6519 34.3143 66.8697C38.5185 66.2134 39.0213 59.0229 39.0213 59.0229C39.0213 59.0229 38.0258 50.5582 39.2818 46.58C40.5371 42.6021 28.8549 43.6028 28.8549 43.6028Z" fill="#FFE1A1"/>
<path id="Vector_6" d="M39.2817 46.5802C40.5372 42.6021 28.8556 43.6027 28.8556 43.6027L28.4976 44.7696C28.7108 45.6167 29.0145 46.3593 29.4275 46.9554C31.5536 50.0224 35.2581 52.2208 38.6489 52.8441C38.6302 50.5971 38.7669 48.2115 39.2817 46.5802Z" fill="#F47458"/>
<g id="Group">
<path id="Vector_7" d="M29.9936 22.9697C29.6914 22.808 25.0275 38.9855 28.6092 44.1514C32.1905 49.3172 40.2507 52.0198 43.7453 48.8789C47.6114 45.4047 50.0522 27.6399 44.1326 21.9975C38.213 16.3549 29.9936 22.9697 29.9936 22.9697Z" fill="#FFE1A1"/>
<path id="Vector_8" d="M42.1978 13.9336C36.9399 14.2176 26.7881 17.5801 22.7484 22.4539C17.7803 28.4469 19.6645 36.1717 23.7963 40.4329C27.9284 44.6941 27.2654 48.8393 27.2654 48.8393C27.2654 48.8393 35.7521 45.9484 35.9026 39.5965C35.966 36.9305 34.598 35.5086 35.8795 33.6661C36.8657 32.2476 37.0914 28.8402 37.6779 25.9912L38.4175 24.2488C38.4175 24.2488 41.8821 23.1884 45.2255 23.3754C48.7078 23.5701 48.9439 13.569 42.1978 13.9336Z" fill="#FF9D00"/>
<path id="Vector_9" d="M37.0418 34.5082C36.7795 36.5269 35.6159 38.0402 34.4422 37.8883C33.2693 37.7363 32.53 35.9761 32.7924 33.9573C33.0547 31.9386 34.2183 30.4253 35.3917 30.5772C36.5654 30.7292 37.3041 32.4892 37.0418 34.5082Z" fill="#FFE1A1"/>
</g>
<path id="Vector_10" d="M-15.2636 82.4322C-15.2636 82.4322 -7.04589 98.1843 -4.27465 99.6381L12.7779 89.3697L8.13768 62.2331L-15.2636 82.4322Z" fill="#B75742"/>
</g>
</g>
</g>
</g>
</svg>
