<svg width="93" height="96" viewBox="0 0 93 96" fill="none" xmlns="http://www.w3.org/2000/svg">
<g id="ava1">
<path id="Vector" fill-rule="evenodd" clip-rule="evenodd" d="M54.562 16.2726C64.7649 16.5275 75.6561 15.8557 82.8154 25.5852C90.7899 36.4226 95.0603 52.5169 92.0126 67.1683C89.0863 81.2365 78.8268 89.7376 68.4933 94.4371C59.7225 98.4259 51.0143 94.0126 42.3098 89.7723C31.635 84.5722 18.0761 82.3602 14.2868 68.0309C10.2516 52.7718 16.2289 35.3517 24.9536 24.1393C32.5886 14.3275 43.9775 16.0081 54.562 16.2726Z" fill="#FF6893"/>
<g id="Mask group">
<mask id="mask0_6330_16992" style="mask-type:alpha" maskUnits="userSpaceOnUse" x="13" y="16" width="80" height="80">
<path id="Vector_2" fill-rule="evenodd" clip-rule="evenodd" d="M54.562 16.2726C64.7649 16.5275 75.6561 15.8557 82.8154 25.5852C90.7899 36.4226 95.0603 52.5169 92.0126 67.1683C89.0863 81.2365 78.8268 89.7376 68.4933 94.4371C59.7225 98.4259 51.0143 94.0126 42.3098 89.7723C31.635 84.5722 18.0761 82.3602 14.2868 68.0309C10.2516 52.7718 16.2289 35.3517 24.9536 24.1393C32.5886 14.3275 43.9775 16.0081 54.562 16.2726Z" fill="#C4C4C4"/>
</mask>
<g mask="url(#mask0_6330_16992)">
<g id="Group 11">
<path id="Vector_3" d="M87.2696 86.9952C87.2696 86.9952 81.2502 82.868 77.6832 79.6532C74.6691 76.9364 71.4543 73.679 65.5427 72.6473C61.3774 71.9204 67.8382 89.4041 67.8382 89.4041L79.8988 99.3437C80.0168 95.4451 84.7682 90.162 87.2696 86.9952Z" fill="#96D9C9"/>
<path id="Vector_4" d="M64.5769 72.3217C67 72.9991 67.5092 73.9848 68.8786 74.9247C70.2481 75.8645 72.9022 79.2495 76.1223 88.7395C77.7675 98.5517 79.9732 103.532 79.5068 106.784C78.0291 117.086 74.4271 135.291 74.2469 135.399C69.7134 138.142 44.4402 135.642 42.8418 133.441C42.7831 133.36 44.6673 125.449 44.4667 117.538C44.2252 108.039 38.9456 81.7489 38.5002 81.0409L40.2862 73.576C43.407 72.625 60.189 71.0952 64.5769 72.3217Z" fill="#50BFA5"/>
<path id="Vector_5" d="M56.2378 63.398C56.2378 63.398 55.0186 71.3495 53.6825 74.1808C52.3468 77.0119 54.2766 84.0723 60.4759 86.322C66.6751 88.5715 62.026 77.6112 62.4684 74.5272C62.9103 71.4431 65.9512 62.4937 65.9512 62.4937L56.2378 63.398Z" fill="#FFE1A1"/>
<path id="Vector_6" d="M64.4842 67.0049C65.2572 64.5358 65.9512 62.4937 65.9512 62.4937L56.2378 63.398C56.2378 63.398 55.9883 65.0239 55.5916 67.0673C58.975 69.1022 62.0989 68.6964 64.4842 67.0049Z" fill="#F47458"/>
<path id="Vector_7" d="M42.4708 74.3816C45.0677 75.9661 47.0077 79.5631 48.0459 82.5361C49.6498 87.1285 48.9532 92.1491 48.2823 96.6532C47.3842 102.68 46.5752 106.923 44.6877 113.617C40.4888 111.473 36.9337 109.772 32.2484 108.223C32.23 108.217 33.0572 86.3463 33.4106 83.9394C34.3777 77.3474 36.9491 71.0122 42.4708 74.3816Z" fill="#96D9C9"/>
</g>
</g>
</g>
<g id="Group 12">
<g id="Group 10">
<path id="Vector_8" d="M1.00646 10.3601C4.17457 -4.68899 26.7483 -1.91686 29.9164 9.56785C33.0847 21.0526 33.4804 18.2804 53.6777 23.4287C73.875 28.5772 73.2597 47.1857 73.2597 47.1857L70.7514 52.4223L51.4772 59.199C51.4772 59.199 7.95309 59.722 7.12009 34.3801C6.78209 24.1045 -2.16164 25.4088 1.00646 10.3601Z" fill="#FF9D00"/>
<path id="Vector_9" d="M44.859 58.4195C39.4255 51.6217 43.1397 38.316 51.0461 35.4974C55.8062 33.8005 59.5611 33.3532 65.5841 36.451C70.2802 38.8662 73.1985 42.9661 73.2606 48.2133C73.3375 54.6969 69.4307 59.1453 65.5171 63.5537C64.6337 64.5486 60.8935 64.7439 54.9968 64.1278C48.7866 62.4422 49.3619 63.2751 44.859 58.4195Z" fill="#FF9D00"/>
<path id="Vector_10" d="M60.7272 42.019C60.7272 42.019 56.8581 42.4808 54.1554 45.8032C51.4528 49.1253 48.7684 59.4493 55.9531 65.1395C63.1378 70.8294 69.8331 64.5204 70.6295 57.7752C71.4256 51.0303 70.9085 41.8657 60.7272 42.019Z" fill="#FFE1A1"/>
<path id="Vector_11" d="M72.6083 55.8423C71.7839 57.4046 70.378 58.2818 69.4679 57.8018C68.5578 57.3216 68.488 55.6659 69.3124 54.1034C70.1368 52.5411 71.5426 51.6639 72.4528 52.1441C73.3629 52.6243 73.4324 54.28 72.6083 55.8423Z" fill="#FFE1A1"/>
<path id="Vector_12" d="M61.8857 41.9143C61.8857 41.9143 55.9487 52.23 51.614 52.7589C47.2789 53.2873 46.7785 58.7347 46.7785 58.7347C46.7785 58.7347 48.1701 46.1797 52.4367 43.7073C56.7031 41.2349 61.8857 41.9143 61.8857 41.9143Z" fill="#FF9D00"/>
<path id="Vector_13" d="M53.0641 55.1797C53.4405 56.9933 52.7519 58.6698 51.5261 58.9241C50.3004 59.1786 49.0014 57.9147 48.6251 56.1009C48.2487 54.2875 48.9373 52.611 50.163 52.3565C51.3891 52.1023 52.688 53.3663 53.0641 55.1797Z" fill="#FFE1A1"/>
</g>
</g>
</g>
</svg>
