<svg width="80" height="80" viewBox="0 0 80 80" fill="none" xmlns="http://www.w3.org/2000/svg">
<g id="ava2">
<path id="Vector" fill-rule="evenodd" clip-rule="evenodd" d="M37.6446 2.93157C49.0193 2.82836 61.5442 -4.47779 70.0568 4.37231C79.5848 14.278 81.6988 31.1677 78.7883 45.7063C75.8989 60.1393 67.1078 72.3753 55.3525 77.8224C44.4743 82.8631 32.6481 78.437 22.3935 71.8384C12.937 65.7533 5.8202 56.1667 2.81562 44.0157C-0.451086 30.8047 -2.41373 14.7088 5.85517 4.95485C13.7277 -4.33155 26.48 3.03288 37.6446 2.93157Z" fill="#58CAFF"/>
<g id="Mask group">
<mask id="mask0_6330_16996" style="mask-type:alpha" maskUnits="userSpaceOnUse" x="0" y="0" width="80" height="80">
<path id="Vector_2" fill-rule="evenodd" clip-rule="evenodd" d="M37.6446 2.93157C49.0193 2.82836 61.5442 -4.47779 70.0568 4.37231C79.5848 14.278 81.6988 31.1677 78.7883 45.7063C75.8989 60.1393 67.1078 72.3753 55.3525 77.8224C44.4743 82.8631 32.6481 78.437 22.3935 71.8384C12.937 65.7533 5.8202 56.1667 2.81562 44.0157C-0.451086 30.8047 -2.41373 14.7088 5.85517 4.95485C13.7277 -4.33155 26.48 3.03288 37.6446 2.93157Z" fill="#58CAFF"/>
</mask>
<g mask="url(#mask0_6330_16996)">
<g id="Group 12">
<path id="Vector_3" d="M72.9453 83.5758C72.9453 83.5758 66.8584 85.5008 64.6599 85.9009C61.9931 86.3865 53.4836 87.1188 53.4836 87.1188C53.4836 87.1188 50.9185 74.5394 49.8921 68.6013C48.6425 61.373 50.0871 50.338 51.0136 50.5497C53.6138 51.1438 57.8095 54.3603 60.0089 57.0661C68.0517 66.9613 72.9453 83.5758 72.9453 83.5758Z" fill="#355389"/>
<path id="Vector_4" d="M22.2032 50.1145C15.5032 53.9252 17.8236 65.7772 18.4006 70.3552C21.1234 91.9499 28.3723 105.091 27.9186 112.939C27.4654 120.788 22.6904 131.928 22.6904 131.928C22.6904 131.928 53.6859 134.821 65.5817 130.466C65.5817 130.466 63.688 111.757 63.5824 107.084C63.4763 102.411 62.2534 71.6832 59.3234 63.1056C58.4982 60.6898 57.0848 55.2571 52.3243 51.4062C51.942 51.0968 51.5131 50.7133 50.9596 50.5197C48.1042 49.5202 24.558 48.7751 22.2032 50.1145Z" fill="#466EB6"/>
<path id="Vector_5" d="M2.47472 75.4268C2.47472 75.4268 5.1636 79.2718 9.05021 82.602C11.8669 85.0155 16.2501 86.9226 16.2501 86.9226C16.2501 86.9226 25.0778 77.9574 29.2144 74.0039C34.3967 69.0513 23.0115 49.8592 22.9253 49.8786C14.9107 51.689 2.47472 75.4268 2.47472 75.4268Z" fill="#355389"/>
<path id="Vector_6" d="M46.1106 12.0384C46.1106 12.0384 41.7038 7.02943 37.7933 12.776C37.7933 12.776 35.0105 11.0738 32.9096 13.8417C32.9096 13.8417 27.8311 12.1037 26.2969 19.7369C26.2969 19.7369 23.6725 19.1391 23.206 22.268C22.7395 25.3966 24.2567 27.5506 24.2567 27.5506C24.2567 27.5506 22.7303 28.6086 23.2966 31.5224C23.7783 33.9997 25.7964 34.4496 25.7964 34.4496C25.7964 34.4496 26.1902 38.6096 27.9388 39.9233C29.6873 41.2371 32.1534 40.7302 32.1534 40.7302C32.1534 40.7302 32.7177 42.9986 34.8196 42.8773C36.9217 42.7563 39.5894 40.8584 41.8995 41.8438C44.2097 42.8291 50.3291 42.1092 50.3291 42.1092C50.3291 42.1092 57.2749 39.323 55.4915 32.2647C55.4915 32.2647 59.2032 29.1577 56.2069 25.1504C56.2069 25.1504 58.7284 19.1523 54.3246 15.3921C49.9212 11.6314 46.1106 12.0384 46.1106 12.0384Z" fill="#07345A"/>
<path id="Vector_7" d="M44.3884 45.0352L45.0264 51.619C45.0264 51.619 46.6515 61.1302 44.0386 62.8546C41.4259 64.5787 33.6482 50.9237 33.6482 50.9237L35.1436 34.3577L44.3884 45.0352Z" fill="#FFE1A1"/>
<path id="Vector_8" d="M34.6598 39.7267C36.55 45.4668 41.426 49.1344 44.9291 50.6172L44.3882 45.0354L35.1436 34.3579L34.6598 39.7267Z" fill="#F47458"/>
<path id="Vector_9" d="M41.5557 18.6114C46.4754 17.121 51.5321 20.5415 52.086 25.5758C52.3267 27.7645 52.5158 30.512 52.4582 33.5059C52.3195 40.7073 48.3324 47.5714 45.0646 47.4492C41.7967 47.327 32.9398 42.3307 32.995 32.102C33.0292 25.7869 36.3928 20.175 41.5557 18.6114Z" fill="#FFE1A1"/>
<path id="Vector_10" d="M35.3731 33C35.314 34.5872 34.2134 35.8349 32.9152 35.7863C31.6173 35.7377 30.613 34.4116 30.6724 32.8244C30.7319 31.2369 31.8325 29.9891 33.1304 30.0378C34.4283 30.0864 35.4326 31.4125 35.3731 33Z" fill="#FFE1A1"/>
</g>
</g>
</g>
</g>
</svg>
