<svg width="99" height="81" viewBox="0 0 99 81" fill="none" xmlns="http://www.w3.org/2000/svg">
<g id="ava3">
<path id="Vector" fill-rule="evenodd" clip-rule="evenodd" d="M62.7318 1.00014C75.5868 0.975467 89.9628 4.18448 96.6406 16.091C102.836 27.138 95.282 40.2425 91.6462 52.5553C88.6055 62.8531 86.9598 75.0177 77.9026 79.5485C68.9432 84.0303 59.5862 77.0545 50.3828 73.197C39.4312 68.6068 25.4708 67.5031 21.0416 55.716C16.1086 42.5879 20.6455 27.1505 28.9732 16.2209C37.1384 5.50453 49.9093 1.02475 62.7318 1.00014Z" fill="#FF6893"/>
<g id="Mask group">
<mask id="mask0_6330_16993" style="mask-type:alpha" maskUnits="userSpaceOnUse" x="19" y="1" width="80" height="80">
<path id="Vector_2" fill-rule="evenodd" clip-rule="evenodd" d="M62.7318 1.00014C75.5868 0.975467 89.9628 4.18448 96.6406 16.091C102.836 27.138 95.282 40.2425 91.6462 52.5553C88.6055 62.8531 86.9598 75.0177 77.9026 79.5485C68.9432 84.0303 59.5862 77.0545 50.3828 73.197C39.4312 68.6068 25.4708 67.5031 21.0416 55.716C16.1086 42.5879 20.6455 27.1505 28.9732 16.2209C37.1384 5.50453 49.9093 1.02475 62.7318 1.00014Z" fill="#C4C4C4"/>
</mask>
<g mask="url(#mask0_6330_16993)">
<g id="Group 15">
<path id="Vector_3" d="M91.9468 78.1417C91.9468 78.1417 85.3652 68.826 82.8059 65.8644C80.2578 62.9163 76.4732 57.976 71.402 55.2387C67.8286 53.3098 68.3975 71.2002 68.3975 71.2002L82.0654 86.0014C83.3586 82.486 88.7054 80.2654 91.9468 78.1417Z" fill="#B75742"/>
<path id="Vector_4" d="M48.3222 41.6215C41.7804 36.4213 42.4079 23.1702 49.2055 18.8389C53.2985 16.2308 56.7176 15.0079 63.0192 16.6182C67.9324 17.8735 71.5424 21.0867 72.7242 25.9853C74.1845 32.0385 71.4796 37.0394 68.7604 42.0043C68.1465 43.1249 66.4791 45.3111 64.3611 47.8718C58.1865 47.6236 53.5769 45.2029 48.3222 41.6215Z" fill="#13375B"/>
<path id="Vector_5" d="M67.1378 53.4709C67.9412 53.9021 71.072 55.1013 71.1304 55.1272C71.1536 55.1367 76.3172 64.3785 79.1822 71.733C81.0177 77.1299 76.7558 85.4532 76.0118 88.4256C73.656 97.84 69.6208 116.041 69.4576 116.113C65.3392 117.898 43.3336 109.412 42.2234 107.067C42.1823 106.981 44.624 99.8818 45.3072 92.4201C46.1275 83.4595 44.2545 67.8146 43.9556 67.0721L46.5212 50.4182C49.2545 50.0686 63.57 51.5551 67.1378 53.4709Z" fill="#F47458"/>
<path id="Vector_6" d="M59.3358 44.0297C59.3358 44.0297 59.5529 51.7517 58.7784 54.6566C58.0039 57.5614 61.0428 63.8992 67.2869 64.9573C73.5305 66.0153 67.2515 56.4608 67.1383 53.471C67.0247 50.4815 68.3566 41.5026 68.3566 41.5026L59.3358 44.0297Z" fill="#FFE1A1"/>
<path id="Vector_7" d="M67.5891 47.344C65.8742 47.7983 63.8525 47.624 61.5839 46.5422C60.754 46.1466 60.014 45.6804 59.3562 45.1585C59.3483 44.461 59.3362 44.0293 59.3362 44.0293L68.357 41.5023C68.357 41.5023 67.9372 44.3327 67.5891 47.344Z" fill="#F47458"/>
<path id="Vector_8" d="M59.6671 22.8706C59.6671 22.8706 56.1432 24.1316 54.3248 27.8199C52.5063 31.5087 52.2043 41.7486 60.1484 45.5364C68.0926 49.3241 73.0094 41.9847 72.3102 35.4997C71.6114 29.0152 69.1649 20.5467 59.6671 22.8706Z" fill="#FFE1A1"/>
<path id="Vector_9" d="M73.7488 33.2672C73.3116 34.9063 72.1832 36.0285 71.2283 35.7739C70.2736 35.5196 69.8541 33.9843 70.2912 32.3452C70.7282 30.7059 71.8566 29.584 72.8113 29.8383C73.7659 30.0928 74.1855 31.6279 73.7488 33.2672Z" fill="#FFE1A1"/>
<path id="Vector_10" d="M60.7276 22.525C60.7276 22.525 57.3784 33.4528 53.4337 34.8759C49.4888 36.2992 50.1869 41.5055 50.1869 41.5055C50.1869 41.5055 48.8008 29.4545 52.2657 26.2263C55.7304 22.9983 60.7276 22.525 60.7276 22.525Z" fill="#13375B"/>
<path id="Vector_11" d="M55.3106 36.8319C56.0513 38.4491 55.7655 40.1658 54.6727 40.6665C53.5796 41.1671 52.0931 40.2621 51.3522 38.6446C50.6119 37.0278 50.8977 35.3108 51.9906 34.8102C53.0838 34.3099 54.5705 35.2151 55.3106 36.8319Z" fill="#FFE1A1"/>
<path id="Vector_12" d="M53.0993 20.2297C53.0993 20.2297 50.9349 9.72102 44.8645 9.07987C38.7943 8.43901 35.5771 15.3074 31.4296 12.4899C27.282 9.67242 27.5841 3.48069 20.2442 1.04996C12.9037 -1.38071 10.5094 6.92659 5.2246 6.75739C-0.0596036 6.5879 -0.0235762 10.2279 0.810506 19.1159C1.64473 28.0042 23.5201 39.4443 28.5752 34.3776C33.6302 29.3109 34.2832 28.0171 37.4152 30.4716C40.5476 32.9268 45.1185 21.1969 47.8881 21.9953C50.6566 22.7932 53.0993 20.2297 53.0993 20.2297Z" fill="#13375B"/>
<path id="Vector_13" d="M46.8069 49.5713C43.6055 49.8566 40.5972 52.3999 38.7202 54.7734C35.82 58.439 35.288 63.6208 34.8609 68.2915C34.2893 74.5411 34.0773 79.0256 34.4008 86.3939C39.471 86.3354 43.7346 86.3969 49.1761 87.1466C49.1976 87.1496 53.8909 65.6355 54.1249 63.1422C54.7662 56.3135 53.6144 48.9636 46.8069 49.5713Z" fill="#B75742"/>
</g>
</g>
</g>
<g id="Group 16">
<path id="Vector_14" d="M48.3232 41.6215C41.7813 36.4213 42.4089 23.1702 49.2065 18.8389C53.2995 16.2308 56.7186 15.0079 63.0202 16.6182C67.9334 17.8735 71.5433 21.0867 72.7252 25.9853C74.1855 32.0385 71.4806 37.0394 68.7614 42.0043C68.1475 43.1249 66.4801 45.3111 64.3621 47.8718C58.1875 47.6236 53.5779 45.2029 48.3232 41.6215Z" fill="#13375B"/>
<path id="Vector_15" d="M59.3358 44.0297C59.3358 44.0297 59.5529 51.7517 58.7784 54.6566C58.0039 57.5614 61.0428 63.8992 67.2869 64.9573C73.5305 66.0153 67.2515 56.4608 67.1383 53.471C67.0247 50.4815 68.3566 41.5026 68.3566 41.5026L59.3358 44.0297Z" fill="#FFE1A1"/>
<path id="Vector_16" d="M67.5891 47.3442C65.8742 47.7986 63.8525 47.6243 61.5839 46.5425C60.754 46.1469 60.014 45.6807 59.3562 45.1587C59.3483 44.4613 59.3362 44.0296 59.3362 44.0296L68.357 41.5025C68.357 41.5025 67.9372 44.3329 67.5891 47.3442Z" fill="#F47458"/>
<path id="Vector_17" d="M59.6671 22.8706C59.6671 22.8706 56.1432 24.1316 54.3248 27.8199C52.5063 31.5087 52.2043 41.7486 60.1484 45.5364C68.0926 49.3241 73.0094 41.9847 72.3102 35.4997C71.6114 29.0152 69.1649 20.5467 59.6671 22.8706Z" fill="#FFE1A1"/>
<path id="Vector_18" d="M73.7488 33.2672C73.3116 34.9063 72.1832 36.0285 71.2283 35.7739C70.2736 35.5196 69.8541 33.9843 70.2912 32.3452C70.7282 30.7059 71.8566 29.584 72.8113 29.8383C73.7659 30.0928 74.1855 31.6279 73.7488 33.2672Z" fill="#FFE1A1"/>
<path id="Vector_19" d="M60.7276 22.525C60.7276 22.525 57.3784 33.4528 53.4337 34.8759C49.4888 36.2992 50.1869 41.5055 50.1869 41.5055C50.1869 41.5055 48.8008 29.4545 52.2657 26.2263C55.7304 22.9983 60.7276 22.525 60.7276 22.525Z" fill="#13375B"/>
<path id="Vector_20" d="M55.3116 36.8319C56.0523 38.4491 55.7665 40.1658 54.6737 40.6665C53.5806 41.1671 52.0941 40.2621 51.3532 38.6446C50.6128 37.0278 50.8987 35.3108 51.9916 34.8102C53.0848 34.3099 54.5715 35.2151 55.3116 36.8319Z" fill="#FFE1A1"/>
<path id="Vector_21" d="M53.0993 20.2297C53.0993 20.2297 50.9349 9.72102 44.8645 9.07987C38.7943 8.43901 35.5771 15.3074 31.4296 12.4899C27.282 9.67242 27.5841 3.48069 20.2442 1.04996C12.9037 -1.38071 10.5094 6.92659 5.2246 6.75739C-0.0596036 6.5879 -0.0235762 10.2279 0.810506 19.1159C1.64473 28.0042 23.5201 39.4443 28.5752 34.3776C33.6302 29.3109 34.2832 28.0171 37.4152 30.4716C40.5476 32.9268 45.1185 21.1969 47.8881 21.9953C50.6566 22.7932 53.0993 20.2297 53.0993 20.2297Z" fill="#13375B"/>
</g>
</g>
</svg>
