<svg width="80" height="80" viewBox="0 0 80 80" fill="none" xmlns="http://www.w3.org/2000/svg">
<g id="ava4">
<path id="Vector" fill-rule="evenodd" clip-rule="evenodd" d="M41.7941 3.37413C53.8222 2.58421 68.0893 -4.86668 76.1076 5.28896C84.2378 15.5863 77.6232 31.2927 74.3252 44.5766C71.3242 56.664 68.354 69.5902 58.6322 75.6774C48.3368 82.1238 35.8345 80.7905 25.0657 75.4202C13.7833 69.7937 3.36125 60.3842 0.696102 46.7848C-1.9527 33.2689 3.1926 18.9457 12.1449 9.48959C19.8645 1.33567 31.242 4.06712 41.7941 3.37413Z" fill="#58CAFF"/>
<g id="Mask group">
<mask id="mask0_6330_16995" style="mask-type:alpha" maskUnits="userSpaceOnUse" x="0" y="0" width="80" height="80">
<path id="Vector_2" fill-rule="evenodd" clip-rule="evenodd" d="M41.7941 3.37413C53.8222 2.58421 68.0893 -4.86668 76.1076 5.28896C84.2378 15.5863 77.6232 31.2927 74.3252 44.5766C71.3242 56.664 68.354 69.5902 58.6322 75.6774C48.3368 82.1238 35.8345 80.7905 25.0657 75.4202C13.7833 69.7937 3.36125 60.3842 0.696102 46.7848C-1.9527 33.2689 3.1926 18.9457 12.1449 9.48959C19.8645 1.33567 31.242 4.06712 41.7941 3.37413Z" fill="#58CAFF"/>
</mask>
<g mask="url(#mask0_6330_16995)">
<g id="Group 14">
<path id="Vector_3" d="M69.4102 87.6849C69.4102 87.6849 63.4837 89.7824 61.3444 90.2388C58.7492 90.7926 50.4727 91.7258 50.4727 91.7258C50.4727 91.7258 49.5317 78.8544 49.4251 72.7105C49.2957 65.2564 47.6983 54.5724 48.5979 54.7681C51.1232 55.3174 54.8214 58.2081 56.9479 60.9204C64.7244 70.8402 69.4102 87.6849 69.4102 87.6849Z" fill="#96D9C9"/>
<path id="Vector_4" d="M27.7542 52.4603C27.7542 52.4603 22.5149 53.2383 20.2189 54.6563C13.6883 58.691 15.8925 70.7326 16.4338 75.3911C18.9871 97.3644 24.0438 109.957 23.5689 117.975C23.0942 125.992 20.3361 138.12 20.3361 138.12C20.3361 138.12 49.3354 140.201 60.9208 135.496C60.9208 135.496 60.2864 116.641 60.2039 111.875C60.121 107.11 59.0657 75.7853 56.2541 67.0977C55.4624 64.6512 54.1117 59.1393 49.5002 55.3146C47.4273 53.5957 42.9525 52.1713 41.2007 51.8153C35.5527 50.6668 27.7542 52.4603 27.7542 52.4603Z" fill="#50BFA5"/>
<path id="Vector_5" d="M33.0482 38.8286L31.2296 52.1507C31.2296 52.1507 38.475 62.1436 42.9192 60.7161C46.6485 59.5183 44.6127 51.286 44.6127 51.286C44.6127 51.286 42.4383 43.7874 42.986 40.0156C43.5334 36.2433 33.0482 38.8286 33.0482 38.8286Z" fill="#FFE1A1"/>
<g id="Group">
<path id="Vector_6" d="M35.108 18.9645C34.8409 18.795 29.4514 33.2042 32.3965 38.1691C35.3409 43.134 42.5732 46.1753 46.0024 43.5634C49.7951 40.6745 53.2469 24.6594 48.1831 19.0923C43.1197 13.5256 35.108 18.9645 35.108 18.9645Z" fill="#FFE1A1"/>
<path id="Vector_7" d="M47.6874 10.6211C42.8305 10.5029 39.1905 12.6151 37.8166 13.5554C35.6514 13.3237 32.5249 13.8223 28.4768 17.9744C23.4989 23.0797 24.7079 30.2549 28.2208 34.4351C31.7335 38.6154 32.4985 43.1026 32.4985 43.1026L33.1609 38.8919C33.9839 37.5449 33.3132 37.7024 33.4925 36.1352C33.6002 35.1949 33.6241 34.1571 33.4212 33.254C32.8872 30.8717 36.4189 30.1669 37.7225 28.58C38.7259 27.3578 39.4706 24.2116 41.0755 22.1791L42.772 20.7342C42.772 20.7342 46.2983 19.1122 49.0951 20.4267C51.892 21.7408 53.919 10.773 47.6874 10.6211Z" fill="#13375B"/>
<path id="Vector_8" d="M36.9286 31.1815C36.5502 33.0026 35.3765 34.2982 34.3071 34.0753C33.2378 33.8524 32.6778 32.1955 33.0558 30.3743C33.4342 28.5532 34.6079 27.2575 35.6772 27.4805C36.7464 27.7033 37.3066 29.3603 36.9286 31.1815Z" fill="#FFE1A1"/>
</g>
<path id="Vector_9" d="M2.17238 81.58C2.17238 81.58 3.16871 84.82 6.93305 88.1328C9.66109 90.5335 14.6717 92.7033 14.6717 92.7033C14.6717 92.7033 22.5372 83.0429 26.5764 78.9186C31.6367 73.7521 23.5773 53.5744 20.2753 54.4994C12.8895 56.5681 2.17238 81.58 2.17238 81.58Z" fill="#96D9C9"/>
</g>
</g>
</g>
</g>
</svg>
