<svg width="40" height="40" viewBox="0 0 40 40" fill="none" xmlns="http://www.w3.org/2000/svg">
<g id="logo icon">
<g id="Group">
<path id="Vector" d="M10.4062 39.9991C10.0199 39.9991 9.6653 39.8691 9.40781 39.6091C9.11756 39.3491 8.95605 38.9921 8.95605 38.5691C8.95605 38.1779 9.08593 37.8199 9.34343 37.5279L14.7532 31.8054C15.0445 31.5123 15.398 31.3503 15.817 31.3503C16.2033 31.3503 16.5579 31.4803 16.8154 31.7404C17.1056 32.0004 17.2671 32.3904 17.2671 32.7804C17.2671 33.1704 17.1373 33.5296 16.8798 33.8216L11.4689 39.5441C11.1787 39.8372 10.8252 39.9991 10.4062 39.9991Z" fill="url(#paint0_linear_6391_2533)"/>
<path id="Vector_2" d="M1.44899 31.4202C1.06274 31.4202 0.708119 31.2582 0.41787 30.9982C0.128749 30.7382 0 30.3482 0 29.957C0 29.567 0.160372 29.2089 0.41787 28.917L5.50685 23.7464C5.76435 23.4545 6.15059 23.3245 6.53797 23.3245C6.92422 23.3245 7.27771 23.4864 7.56796 23.7464C7.85821 24.0065 7.98583 24.3965 7.98583 24.7876C7.98583 25.1776 7.82546 25.5346 7.56796 25.8277L2.47898 30.9993C2.22149 31.2593 1.83524 31.4202 1.44899 31.4202Z" fill="url(#paint1_linear_6391_2533)"/>
<path id="Vector_3" d="M1.95787 39.9183C1.56936 39.9183 1.21361 39.7552 0.922229 39.4941C0.630849 39.233 0.500977 38.8418 0.500977 38.4507C0.500977 38.0596 0.630849 37.7015 0.922229 37.4073L11.1522 26.9407C11.4435 26.6476 11.7993 26.5176 12.1878 26.5176C12.5763 26.5176 12.9332 26.6806 13.2234 26.9407C13.8062 27.4948 13.8062 28.4401 13.2562 29.0274L3.02626 39.4941C2.74123 39.7671 2.35734 39.9196 1.95787 39.9183Z" fill="url(#paint2_linear_6391_2533)"/>
<path id="Vector_4" d="M8.1416 18.5619C11.4428 15.6599 21.6399 7.47605 32.7756 6.33463C32.8498 6.32774 32.9247 6.33777 32.9944 6.36396C33.0639 6.39014 33.1263 6.43175 33.1765 6.4855C33.2269 6.53925 33.2636 6.60366 33.2841 6.67365C33.3044 6.74366 33.3078 6.81731 33.294 6.88882C32.9055 9.62779 30.736 20.7137 21.1227 30.5931C21.0181 30.7007 20.8872 30.7804 20.7423 30.825C20.5974 30.8697 20.4433 30.8777 20.2944 30.8483C20.1454 30.8189 20.0066 30.753 19.891 30.6569C19.7753 30.5608 19.6866 30.4377 19.633 30.299L17.4308 25.2132L14.6807 25.9294C14.5541 25.9596 14.4215 25.9564 14.2966 25.9201C14.1717 25.8838 14.059 25.8157 13.97 25.7228C13.881 25.6299 13.819 25.5156 13.7902 25.3916C13.7615 25.2676 13.7672 25.1383 13.8066 25.0171L14.5508 22.4412L8.40023 20.0945C7.78472 19.8653 7.62322 19.0181 8.14047 18.5619H8.1416Z" fill="url(#paint3_linear_6391_2533)"/>
<path id="Vector_5" d="M38.8941 28.1803L27.8883 28.3764C27.4998 28.3764 27.1429 28.5714 26.9171 28.9306C25.8159 30.7231 22.1262 36.5922 19.2441 39.1681C18.5653 39.7884 17.5285 39.6253 17.0429 38.842C16.9645 38.7134 16.8892 38.5829 16.817 38.4508C16.1372 36.9194 15.6199 36.0049 14.713 34.4405C13.936 33.104 12.382 31.2123 11.4751 30.072C10.3751 28.7344 8.04404 26.6477 6.84577 25.8005C4.61299 24.1699 2.54058 23.2246 1.05206 22.7034C-0.0163338 22.3112 -0.307713 20.9098 0.533675 20.1275C2.96184 17.8116 7.10553 13.9973 9.69519 12.6929C10.0837 12.4978 10.3096 12.0737 10.3096 11.6495L10.1153 1.1828C10.1153 0.33555 10.9578 -0.251687 11.7348 0.107486C14.0647 1.1178 18.4354 3.26953 20.928 6.0746C21.2194 6.40072 21.6734 6.53073 22.0935 6.40072C23.9705 5.84544 29.3125 4.34595 34.4918 4.05288C35.2033 4.01983 35.7861 4.60706 35.689 5.32431C35.4303 7.80326 34.7516 13.149 33.5849 16.6713C33.4562 17.0294 33.5205 17.4205 33.7792 17.7466C34.9119 19.1811 38.247 23.5507 39.8326 26.4847C40.2866 27.235 39.7683 28.1814 38.8953 28.1814L38.8941 28.1803Z" fill="url(#paint4_linear_6391_2533)"/>
<path id="Vector_6" d="M16.1039 25.5702L14.6786 25.9283C14.5519 25.9586 14.4192 25.9554 14.2942 25.919C14.1692 25.8827 14.0562 25.8145 13.9672 25.7215C13.8782 25.6284 13.8162 25.5139 13.7875 25.3897C13.759 25.2656 13.7648 25.1362 13.8045 25.0149L14.5499 22.4401L8.3993 20.0923C7.75103 19.8312 7.58953 18.9839 8.10792 18.5278C11.4079 15.6246 21.6062 7.44079 32.7419 6.29937C32.8161 6.29266 32.8909 6.30283 32.9602 6.3291C33.0297 6.35536 33.0919 6.397 33.142 6.45072C33.1922 6.50444 33.2289 6.56879 33.2492 6.6387C33.2696 6.7086 33.2729 6.78215 33.2592 6.85355C32.8707 9.59252 30.7022 20.6773 21.0879 30.5568C20.9834 30.6643 20.8525 30.7442 20.7077 30.7889C20.5629 30.8335 20.4088 30.8417 20.2599 30.8124C20.1111 30.7831 19.9721 30.7173 19.8565 30.6213C19.7407 30.5254 19.6518 30.4023 19.5982 30.2637L17.397 25.1769L16.1028 25.5691L16.1039 25.5702Z" fill="#FFFFFC"/>
<path id="Vector_7" d="M24.5844 17.8764C26.4083 17.8764 27.8867 16.3879 27.8867 14.5513C27.8867 12.7136 26.4083 11.2251 24.5844 11.2251C22.7616 11.2251 21.2832 12.7136 21.2832 14.5513C21.2832 16.3879 22.7616 17.8764 24.5844 17.8764Z" fill="url(#paint5_linear_6391_2533)"/>
</g>
</g>
<defs>
<linearGradient id="paint0_linear_6391_2533" x1="8.24681" y1="41.1328" x2="14.9231" y2="34.2699" gradientUnits="userSpaceOnUse">
<stop offset="0.188" stop-color="#25E2EA"/>
<stop offset="1" stop-color="#19A6D1"/>
</linearGradient>
<linearGradient id="paint1_linear_6391_2533" x1="-1.12938" y1="32.8888" x2="7.02847" y2="24.4655" gradientUnits="userSpaceOnUse">
<stop offset="0.396" stop-color="#E55EC4"/>
<stop offset="1" stop-color="#8225D0"/>
</linearGradient>
<linearGradient id="paint2_linear_6391_2533" x1="9.2977" y1="31.3962" x2="3.3427" y2="36.0423" gradientUnits="userSpaceOnUse">
<stop stop-color="#A443FD"/>
<stop offset="1" stop-color="#A959F3"/>
</linearGradient>
<linearGradient id="paint3_linear_6391_2533" x1="7.05966" y1="33.8896" x2="67.722" y2="-38.711" gradientUnits="userSpaceOnUse">
<stop offset="0.102" stop-color="white" stop-opacity="0.7"/>
<stop offset="0.481" stop-color="white" stop-opacity="0"/>
</linearGradient>
<linearGradient id="paint4_linear_6391_2533" x1="38.8275" y1="2.38812" x2="9.57492" y2="26.9303" gradientUnits="userSpaceOnUse">
<stop offset="0.174" stop-color="#52BFCA"/>
<stop offset="0.916" stop-color="#7238DF"/>
</linearGradient>
<linearGradient id="paint5_linear_6391_2533" x1="35.5213" y1="1.52302" x2="12.0255" y2="29.0311" gradientUnits="userSpaceOnUse">
<stop stop-color="#52BFCA"/>
<stop offset="1" stop-color="#7238DF"/>
</linearGradient>
</defs>
</svg>
