<svg width="18" height="18" viewBox="0 0 18 18" fill="none" xmlns="http://www.w3.org/2000/svg">
<g id="icon_degree">
<path id="Vector" d="M7.19525 2.45906C7.64261 2.15952 8.1655 2 8.69998 2C9.23445 2 9.75734 2.15952 10.2047 2.45906L16.151 6.44022C16.2269 6.49105 16.2894 6.56033 16.3328 6.64188C16.3763 6.72342 16.3993 6.81471 16.4 6.90761C16.4006 7.0005 16.3788 7.09212 16.3366 7.1743C16.2943 7.25648 16.2328 7.32667 16.1576 7.37862L10.2421 11.4792C9.78702 11.7947 9.25008 11.9634 8.70053 11.9634C8.15098 11.9634 7.61403 11.7947 7.15896 11.4792L2.10032 7.97455V11.531C2.10032 11.6804 2.04238 11.8237 1.93924 11.9293C1.8361 12.0349 1.69621 12.0943 1.55035 12.0943C1.40449 12.0943 1.2646 12.0349 1.16146 11.9293C1.05832 11.8237 1.00038 11.6804 1.00038 11.531V7.02489C1.00038 7.00686 1.00038 6.98771 1.00258 6.96856C0.99287 6.86603 1.01069 6.76274 1.05411 6.66982C1.09753 6.57691 1.16491 6.49791 1.24897 6.44134L7.19525 2.45906ZM3.20026 12.6564V10.0958L6.54189 12.4131C7.17897 12.8548 7.93065 13.0908 8.69998 13.0908C9.4693 13.0908 10.221 12.8548 10.8581 12.4131L14.1997 10.0958V12.6575C14.1997 12.7913 14.1533 12.9206 14.0688 13.0225L14.0677 13.0248L14.0655 13.027L14.0589 13.0349L14.0369 13.0597C13.9235 13.1864 13.805 13.3082 13.6816 13.4247C13.4396 13.6534 13.0854 13.9553 12.6279 14.2583C11.7149 14.8622 10.3741 15.475 8.70108 15.475C7.02586 15.475 5.68613 14.8622 4.77208 14.2583C4.39789 14.0118 4.04499 13.7329 3.71724 13.4247C3.59422 13.3082 3.47605 13.1864 3.36305 13.0597L3.34106 13.0349L3.33446 13.027L3.33226 13.0248L3.75023 12.6587C3.33116 13.0225 3.33226 13.0237 3.33226 13.0237C3.24732 12.9215 3.20054 12.7917 3.20026 12.6575V12.6564Z" fill="#5D5777"/>
</g>
</svg>
