<svg width="18" height="18" viewBox="0 0 18 18" fill="none" xmlns="http://www.w3.org/2000/svg">
<g id="icon_location">
<path id="Vector" d="M8.6 8.1C8.06957 8.1 7.56086 7.88929 7.18579 7.51421C6.81071 7.13914 6.6 6.63043 6.6 6.1C6.6 5.56957 6.81071 5.06086 7.18579 4.68579C7.56086 4.31071 8.06957 4.1 8.6 4.1C9.13043 4.1 9.63914 4.31071 10.0142 4.68579C10.3893 5.06086 10.6 5.56957 10.6 6.1C10.6 6.36264 10.5483 6.62272 10.4478 6.86537C10.3472 7.10802 10.1999 7.3285 10.0142 7.51421C9.8285 7.69993 9.60802 7.84725 9.36537 7.94776C9.12272 8.04827 8.86264 8.1 8.6 8.1ZM8.6 0.5C7.11479 0.5 5.69041 1.09 4.6402 2.1402C3.59 3.19041 3 4.61479 3 6.1C3 10.3 8.6 16.5 8.6 16.5C8.6 16.5 14.2 10.3 14.2 6.1C14.2 4.61479 13.61 3.19041 12.5598 2.1402C11.5096 1.09 10.0852 0.5 8.6 0.5Z" fill="#5D5777"/>
</g>
</svg>
