<svg width="18" height="18" viewBox="0 0 18 18" fill="none" xmlns="http://www.w3.org/2000/svg">
<g id="icon_order">
<path id="Vector" fill-rule="evenodd" clip-rule="evenodd" d="M3.48259 2.48259C3 2.96518 3 3.74094 3 5.29412V12.7059C3 14.2591 3 15.0348 3.48259 15.5174C3.96518 16 4.74094 16 6.29412 16H11.2353C12.7885 16 13.5642 16 14.0468 15.5174C14.5294 15.0348 14.5294 14.2591 14.5294 12.7059V5.29412C14.5294 3.74094 14.5294 2.96518 14.0468 2.48259C13.5642 2 12.7885 2 11.2353 2H6.29412C4.74094 2 3.96518 2 3.48259 2.48259ZM6.29412 5.29412C6.0757 5.29412 5.86624 5.38088 5.71179 5.53532C5.55735 5.68977 5.47059 5.89923 5.47059 6.11765C5.47059 6.33606 5.55735 6.54553 5.71179 6.69997C5.86624 6.85441 6.0757 6.94118 6.29412 6.94118H11.2353C11.4537 6.94118 11.6632 6.85441 11.8176 6.69997C11.9721 6.54553 12.0588 6.33606 12.0588 6.11765C12.0588 5.89923 11.9721 5.68977 11.8176 5.53532C11.6632 5.38088 11.4537 5.29412 11.2353 5.29412H6.29412ZM6.29412 8.58824C6.0757 8.58824 5.86624 8.675 5.71179 8.82944C5.55735 8.98388 5.47059 9.19335 5.47059 9.41176C5.47059 9.63018 5.55735 9.83965 5.71179 9.99409C5.86624 10.1485 6.0757 10.2353 6.29412 10.2353H11.2353C11.4537 10.2353 11.6632 10.1485 11.8176 9.99409C11.9721 9.83965 12.0588 9.63018 12.0588 9.41176C12.0588 9.19335 11.9721 8.98388 11.8176 8.82944C11.6632 8.675 11.4537 8.58824 11.2353 8.58824H6.29412ZM6.29412 11.8824C6.0757 11.8824 5.86624 11.9691 5.71179 12.1236C5.55735 12.278 5.47059 12.4875 5.47059 12.7059C5.47059 12.9243 5.55735 13.1338 5.71179 13.2882C5.86624 13.4426 6.0757 13.5294 6.29412 13.5294H9.58824C9.80665 13.5294 10.0161 13.4426 10.1706 13.2882C10.325 13.1338 10.4118 12.9243 10.4118 12.7059C10.4118 12.4875 10.325 12.278 10.1706 12.1236C10.0161 11.9691 9.80665 11.8824 9.58824 11.8824H6.29412Z" fill="#5D5777"/>
</g>
</svg>
