<svg width="29" height="17" viewBox="0 0 29 17" fill="none" xmlns="http://www.w3.org/2000/svg">
<g id="Group 25">
<path id="Vector" d="M27.7718 0.666504H1.22817C0.549872 0.666504 0 1.24437 0 1.95719V15.5095C0 16.2223 0.549872 16.8001 1.22817 16.8001H27.7718C28.4501 16.8001 29 16.2223 29 15.5095V1.95719C29 1.24437 28.4501 0.666504 27.7718 0.666504Z" fill="white"/>
<path id="Vector_2" d="M11.8342 5.4541L9.4775 11.2571H7.94005L6.78031 6.62576C6.71 6.34119 6.6489 6.23646 6.43494 6.11613C6.0852 5.92004 5.50766 5.73664 5 5.62255L5.03424 5.4541H7.50952C7.82452 5.4541 8.10816 5.6706 8.1803 6.04545L8.79308 9.40371L10.3059 5.4541H11.8342ZM13.9126 5.4541L12.71 11.2571H11.2554L12.4581 5.4541H13.9126ZM17.8583 9.36242C17.8643 7.83116 15.807 7.74617 15.8204 7.06201C15.8253 6.854 16.0173 6.63258 16.4375 6.57597C16.6456 6.54817 17.2206 6.52604 17.8719 6.83579L18.1267 5.60448C17.7768 5.47384 17.3264 5.34814 16.7662 5.34814C15.3283 5.34814 14.3169 6.13645 14.3088 7.26616C14.2994 8.10179 15.0313 8.5675 15.5817 8.84583C16.1486 9.13003 16.3387 9.3127 16.3361 9.56672C16.3321 9.95608 15.8833 10.1284 15.4662 10.1348C14.7346 10.1468 14.3106 9.93075 13.9723 9.76811L13.7083 11.0402C14.0486 11.2012 14.6758 11.341 15.3254 11.3481C16.854 11.3481 17.8538 10.5688 17.8583 9.36242ZM21.6551 11.2571H23L21.8251 5.4541H20.5843C20.3044 5.4541 20.0692 5.62175 19.9649 5.87947L17.7824 11.2571H19.3098L19.6128 10.3902H21.4789L21.6551 11.2571ZM20.0316 9.20108L20.7975 7.02187L21.2374 9.20108H20.0316Z" fill="#58CAFF"/>
</g>
</svg>
