<svg width="29" height="17" viewBox="0 0 29 17" fill="none" xmlns="http://www.w3.org/2000/svg">
<g id="Clip path group">
<mask id="mask0_6303_825" style="mask-type:luminance" maskUnits="userSpaceOnUse" x="0" y="0" width="29" height="17">
<g id="b">
<path id="Vector" d="M29 0.666504H0V16.6665H29V0.666504Z" fill="white"/>
</g>
</mask>
<g mask="url(#mask0_6303_825)">
<g id="Group">
<path id="Vector_2" d="M27.7718 0.666504H1.22817C0.549872 0.666504 0 1.24437 0 1.95719V15.5095C0 16.2223 0.549872 16.8001 1.22817 16.8001H27.7718C28.4501 16.8001 29 16.2223 29 15.5095V1.95719C29 1.24437 28.4501 0.666504 27.7718 0.666504Z" fill="white"/>
<path id="Vector_3" d="M9.00892 6.01328C9.20873 5.75419 9.34431 5.40629 9.30857 5.05078C9.01603 5.06586 8.65911 5.25084 8.45249 5.51014C8.26696 5.73219 8.10275 6.09465 8.14552 6.43526C8.47387 6.46478 8.80194 6.26511 9.00892 6.01328Z" fill="#58CAFF"/>
<path id="Vector_4" d="M9.30414 6.501C8.82731 6.47155 8.42189 6.78156 8.19417 6.78156C7.96637 6.78156 7.61765 6.51583 7.24058 6.52299C6.74968 6.53047 6.29424 6.81822 6.04513 7.27585C5.53277 8.19138 5.90991 9.5494 6.40813 10.295C6.65006 10.6639 6.94166 11.0701 7.32591 11.0555C7.68892 11.0408 7.83123 10.8118 8.27247 10.8118C8.71341 10.8118 8.84159 11.0555 9.22584 11.0481C9.62438 11.0408 9.87349 10.6791 10.1154 10.3098C10.393 9.88928 10.5066 9.48327 10.5137 9.46094C10.5066 9.45355 9.74531 9.15077 9.73827 8.24289C9.7311 7.48268 10.336 7.12109 10.3645 7.09866C10.0228 6.57489 9.48916 6.51583 9.30414 6.501Z" fill="#58CAFF"/>
<path id="Vector_5" d="M13.4566 5.47314C14.4929 5.47314 15.2145 6.21377 15.2145 7.29206C15.2145 8.37424 14.4781 9.1187 13.4306 9.1187H12.2831V11.0105H11.4541V5.47314H13.4566ZM12.2831 8.39725H13.2344C13.9561 8.39725 14.3669 7.99436 14.3669 7.29592C14.3669 6.59756 13.9561 6.19845 13.2381 6.19845H12.2831V8.39725Z" fill="#58CAFF"/>
<path id="Vector_6" d="M15.4287 9.86188C15.4287 9.15575 15.9506 8.72215 16.876 8.66843L17.9419 8.60322V8.29243C17.9419 7.84344 17.6495 7.57483 17.161 7.57483C16.6983 7.57483 16.4096 7.80504 16.3393 8.16581H15.5842C15.6287 7.43663 16.2282 6.89941 17.1906 6.89941C18.1344 6.89941 18.7377 7.41746 18.7377 8.22714V11.0092H17.9715V10.3454H17.953C17.7273 10.7944 17.235 11.0783 16.7242 11.0783C15.9617 11.0783 15.4287 10.5871 15.4287 9.86188ZM17.9419 9.49739V9.17891L16.9833 9.24024C16.5058 9.27484 16.2356 9.4935 16.2356 9.83887C16.2356 10.1919 16.5169 10.4222 16.9463 10.4222C17.5051 10.4222 17.9419 10.023 17.9419 9.49739Z" fill="#58CAFF"/>
<path id="Vector_7" d="M19.4631 12.4957V11.8241C19.5222 11.8394 19.6554 11.8394 19.7221 11.8394C20.0922 11.8394 20.2921 11.6783 20.4142 11.2639C20.4142 11.2562 20.4845 11.0182 20.4845 11.0144L19.0781 6.97363H19.9441L20.9288 10.2585H20.9435L21.9282 6.97363H22.772L21.3136 11.2216C20.9806 12.2002 20.5957 12.5149 19.7888 12.5149C19.7221 12.5149 19.5222 12.5072 19.4631 12.4957Z" fill="#58CAFF"/>
</g>
</g>
</g>
</svg>
