<svg width="29" height="17" viewBox="0 0 29 17" fill="none" xmlns="http://www.w3.org/2000/svg">
<g id="Clip path group">
<mask id="mask0_6303_855" style="mask-type:luminance" maskUnits="userSpaceOnUse" x="0" y="0" width="29" height="17">
<g id="e">
<path id="Vector" d="M29 0.666504H0V16.6665H29V0.666504Z" fill="white"/>
</g>
</mask>
<g mask="url(#mask0_6303_855)">
<g id="Group">
<path id="Vector_2" d="M27.7718 0.666504H1.22817C0.549872 0.666504 0 1.24437 0 1.95719V15.5095C0 16.2223 0.549872 16.8001 1.22817 16.8001H27.7718C28.4501 16.8001 29 16.2223 29 15.5095V1.95719C29 1.24437 28.4501 0.666504 27.7718 0.666504Z" fill="white"/>
<path id="Vector_3" d="M4.45215 6.16226H5.2801L4.86685 4.92725L4.45215 6.16226Z" fill="#58CAFF"/>
<path id="Vector_4" d="M14.7216 5.10465C14.647 5.06055 14.5339 5.06055 14.4208 5.06055H13.6689V5.76626H14.4208C14.5339 5.76626 14.647 5.76628 14.7216 5.72216C14.797 5.67806 14.834 5.54573 14.834 5.41341C14.8724 5.23697 14.797 5.14876 14.7216 5.10465Z" fill="#58CAFF"/>
<path id="Vector_5" d="M22.7651 3.78027V4.30958L22.5404 3.78027H20.7728V4.30958L20.5466 3.78027H18.1404C17.7271 3.78027 17.3886 3.86849 17.0877 4.04492V3.78027H15.3955V4.04492C15.2078 3.86849 14.9823 3.78027 14.6814 3.78027H8.62765L8.2144 4.88298L7.80115 3.78027H5.8828V4.30958L5.65732 3.78027H4.04057L3.28875 5.85334L2.42383 8.14695H3.28875H4.34073L4.56692 7.44125H5.09327L5.31875 8.14695H7.49955V7.61761L7.68805 8.14695H8.77845L8.96623 7.61761V8.14695H14.1928V7.00011H14.2681C14.3428 7.00011 14.3428 7.00011 14.3428 7.13249V8.10284H17.05V7.83823C17.2754 7.9705 17.614 8.10284 18.0657 8.10284H19.1931L19.4193 7.39709H19.9449L20.1711 8.10284H22.3519V7.44125L22.6905 8.10284H24.4573V3.78027H22.7651ZM10.0566 7.48532H9.41717V5.0594L8.51527 7.48532H7.95122L7.04787 5.0594V7.48532H5.77043L5.50725 6.82374H4.22835L4.0036 7.52948H3.28875L4.41685 4.39779H5.35718L6.40915 7.35302V4.39779H7.42487L8.25137 6.51496L9.00393 4.39779H10.0566V7.48532ZM12.613 5.0594H11.147V5.63281H12.576V6.25031H11.147V6.86781H12.613V7.52948H10.5076V4.39779H12.613V5.0594ZM15.4332 6.33852C15.5086 6.51496 15.5463 6.64728 15.5463 6.91197V7.52948H14.9069V7.13249C14.9069 6.95604 14.9069 6.69135 14.7945 6.51496C14.6814 6.38264 14.5683 6.38263 14.3428 6.38263H13.6664V7.52948H13.0277V4.39779H14.4559C14.7945 4.39779 15.02 4.39779 15.2077 4.53011C15.3955 4.66243 15.5086 4.88298 15.5086 5.23583C15.5086 5.72101 15.2455 5.98567 15.057 6.07388C15.2455 6.11799 15.3586 6.25032 15.4332 6.33852ZM16.5613 7.48532H15.9219V4.35368H16.5613V7.48532ZM23.9686 7.48532H23.0667L21.8633 5.14763V7.48532H20.5843L20.3596 6.82374H19.043L18.8175 7.52948H18.1027C17.8025 7.52948 17.4263 7.44125 17.2008 7.17656C16.9753 6.91197 16.8622 6.55906 16.8622 5.98567C16.8622 5.54459 16.9376 5.10351 17.2008 4.75065C17.3886 4.486 17.7271 4.39779 18.1404 4.39779H18.7421V5.0594H18.1404C17.9156 5.0594 17.8025 5.10351 17.6517 5.23583C17.5394 5.36816 17.4639 5.63281 17.4639 5.94156C17.4639 6.29441 17.5009 6.51496 17.6517 6.69135C17.7641 6.82374 17.9156 6.86781 18.1027 6.86781H18.3659L19.2308 4.4419H20.1711L21.2238 7.39709V4.4419H22.1634L23.2538 6.60321V4.4419H23.894V7.48532H23.9686Z" fill="#58CAFF"/>
<path id="Vector_6" d="M19.2686 6.16226H20.1328L19.7195 4.92725L19.2686 6.16226Z" fill="#58CAFF"/>
<path id="Vector_7" d="M12.8787 12.5132V9.99902L11.9014 11.2341L12.8787 12.5132Z" fill="#58CAFF"/>
<path id="Vector_8" d="M8.85352 10.3086V10.8819H10.2448V11.4995H8.85352V12.1611H10.3949L11.1097 11.2348L10.4333 10.3086H8.85352Z" fill="#58CAFF"/>
<path id="Vector_9" d="M14.3061 10.3086H13.5166V11.1025H14.3438C14.57 11.1025 14.7201 10.9702 14.7201 10.7055C14.6817 10.4409 14.5316 10.3086 14.3061 10.3086Z" fill="#58CAFF"/>
<path id="Vector_10" d="M25.924 11.0591V9.07422H25.4723H24.345C24.0064 9.07422 23.7432 9.16237 23.5547 9.33883V9.07422H21.8256C21.5624 9.07422 21.2238 9.16237 21.073 9.33883V9.07422H18.028V9.33883C17.8018 9.11826 17.3886 9.07422 17.2001 9.07422H15.1708V9.33883C14.9823 9.11826 14.5306 9.07422 14.3059 9.07422H12.0497L11.5233 9.73578L11.0347 9.07422H7.65039V13.3967H10.9586L11.4849 12.7351L11.975 13.3967H14.0043V12.3823H14.2675C14.5306 12.3823 14.8692 12.3823 15.1324 12.2498V13.4408H16.8245V12.294H16.8999C17.013 12.294 17.013 12.294 17.013 12.4263V13.4408H22.1265C22.465 13.4408 22.8029 13.3526 22.9914 13.1762V13.4408H24.6081C24.9467 13.4408 25.2853 13.3967 25.51 13.2203C25.887 12.9556 26.1118 12.4705 26.1118 11.8971C26.1118 11.5883 26.0371 11.2796 25.924 11.0591ZM14.2675 11.7647H13.5156V12.8233H12.3121L11.5603 11.8088L10.7715 12.8233H8.28911V9.69174H10.8085L11.5603 10.7061L12.3506 9.69174H14.3429C14.8322 9.69174 15.3963 9.86805 15.3963 10.7061C15.3579 11.5883 14.8322 11.7647 14.2675 11.7647ZM18.028 11.5883C18.1034 11.7206 18.1404 11.8971 18.1404 12.1618V12.7792H17.5017V12.3823C17.5017 12.2058 17.5017 11.8971 17.3886 11.7647C17.3132 11.6324 17.1631 11.6324 16.9376 11.6324H16.2612V12.7792H15.621V9.64755H17.05C17.3516 9.64755 17.6148 9.64755 17.8018 9.77982C17.9903 9.91224 18.1404 10.1327 18.1404 10.4856C18.1404 10.9708 17.8772 11.2354 17.6895 11.3236C17.8772 11.4118 17.9903 11.5 18.028 11.5883ZM20.6221 10.3092H19.1554V10.8826H20.5844V11.5H19.1554V12.1176H20.6221V12.7792H18.5167V9.64755H20.6221V10.3092ZM22.2011 12.7792H20.9976V12.1176H22.2011C22.3142 12.1176 22.3896 12.1176 22.465 12.0293C22.5027 11.9853 22.5397 11.8971 22.5397 11.8088C22.5397 11.7206 22.5027 11.6324 22.465 11.5883C22.4266 11.5442 22.3519 11.5 22.2396 11.5C21.6378 11.456 20.923 11.5 20.923 10.5298C20.923 10.0886 21.1492 9.60351 21.8256 9.60351H23.0661V10.3533H21.901C21.7879 10.3533 21.7125 10.3533 21.6378 10.3973C21.5624 10.4415 21.5624 10.5298 21.5624 10.618C21.5624 10.7503 21.6378 10.7944 21.7125 10.8385C21.7879 10.8826 21.8633 10.8826 21.938 10.8826H22.2765C22.6151 10.8826 22.8413 10.9708 22.9914 11.1472C23.1038 11.2796 23.1784 11.5 23.1784 11.8088C23.1784 12.4705 22.8413 12.7792 22.2011 12.7792ZM25.4354 12.4705C25.2853 12.6469 25.0214 12.7792 24.6451 12.7792H23.4431V12.1176H24.6451C24.7582 12.1176 24.8336 12.1176 24.909 12.0293C24.9467 11.9853 24.9837 11.8971 24.9837 11.8088C24.9837 11.7206 24.9467 11.6324 24.909 11.5883C24.8706 11.5442 24.7959 11.5 24.6835 11.5C24.0818 11.456 23.3669 11.5 23.3669 10.5298C23.3669 10.0886 23.5931 9.60351 24.2696 9.60351H25.51V10.3533H24.3819C24.2696 10.3533 24.1949 10.3533 24.1188 10.3973C24.0434 10.4415 24.0434 10.5298 24.0434 10.618C24.0434 10.7503 24.0818 10.7944 24.1949 10.8385C24.2696 10.8826 24.345 10.8826 24.4204 10.8826H24.7582C25.0968 10.8826 25.3223 10.9708 25.4723 11.1472C25.51 11.1472 25.51 11.1913 25.51 11.1913C25.6224 11.3678 25.6608 11.5883 25.6608 11.8088C25.6608 12.0735 25.5854 12.294 25.4354 12.4705Z" fill="#58CAFF"/>
<path id="Vector_11" d="M17.3525 10.3958C17.2771 10.3516 17.164 10.3516 17.0516 10.3516H16.2998V11.0573H17.0516C17.164 11.0573 17.2771 11.0573 17.3525 11.0132C17.4272 10.9691 17.4656 10.8367 17.4656 10.7045C17.5026 10.528 17.4272 10.4398 17.3525 10.3958Z" fill="#58CAFF"/>
<path id="Vector_12" d="M14.719 5.10417C14.645 5.06006 14.5319 5.06006 14.4188 5.06006H13.667V5.76579H14.4188C14.5319 5.76579 14.645 5.76579 14.719 5.72167C14.7951 5.67757 14.8321 5.54524 14.8321 5.41292C14.8705 5.23649 14.7951 5.14827 14.719 5.10417Z" fill="#58CAFF"/>
<path id="Vector_13" d="M19.2686 6.16226H20.1328L19.7195 4.92725L19.2686 6.16226Z" fill="#58CAFF"/>
<path id="Vector_14" d="M12.8787 12.5132V9.99902L11.9014 11.2341L12.8787 12.5132Z" fill="#58CAFF"/>
<path id="Vector_15" d="M14.3061 10.3086H13.5166V11.1025H14.3438C14.57 11.1025 14.7201 10.9702 14.7201 10.7055C14.6817 10.4409 14.5316 10.3086 14.3061 10.3086Z" fill="#58CAFF"/>
<path id="Vector_16" d="M17.3525 10.3958C17.2771 10.3516 17.164 10.3516 17.0516 10.3516H16.2998V11.0573H17.0516C17.164 11.0573 17.2771 11.0573 17.3525 11.0132C17.4272 10.9691 17.4656 10.8367 17.4656 10.7045C17.5026 10.528 17.4272 10.4398 17.3525 10.3958Z" fill="#58CAFF"/>
<path id="Vector_17" d="M14.042 12.691L13.5156 12.0293V12.7792H12.2752L11.5233 11.7647L10.6961 12.7792H8.21444V9.69174H10.7331L11.5233 10.7061L11.8989 10.1768L10.9586 9.07422H7.65039V13.3967H10.9586L11.5233 12.7351L12.012 13.3967H14.042V12.691Z" fill="#58CAFF"/>
<path id="Vector_18" d="M10.132 8.10284L9.64337 7.48532H9.41718V7.22072L8.85313 6.55905L8.47685 7.48532H7.95122L7.04787 5.0594V7.48532H5.77043L5.50725 6.82374H4.22835L3.96517 7.48532H3.28875L4.41685 4.39779H5.35718L6.40915 7.35302V4.39779H6.9732L6.44758 3.78027H5.8828V4.30958L5.6943 3.78027H4.04058L3.28875 5.85334L2.42383 8.10284H3.28875H4.37915L4.60391 7.44125H5.13097L5.39415 8.10284H7.49955V7.57354L7.68806 8.10284H8.77845L8.96623 7.57354V8.10284H10.132Z" fill="#58CAFF"/>
<path id="Vector_19" d="M8.40058 6.07339L7.79883 5.36768L8.24978 6.51446L8.40058 6.07339Z" fill="#58CAFF"/>
<path id="Vector_20" d="M25.5133 13.1758C25.8519 12.9111 26.0774 12.47 26.1151 11.9848L25.5888 11.3673C25.6265 11.4997 25.6634 11.632 25.6634 11.8084C25.6634 12.0731 25.5888 12.2936 25.438 12.47C25.2879 12.6464 25.0247 12.7788 24.6484 12.7788H23.4457V12.1171H24.6484C24.7615 12.1171 24.8362 12.1171 24.9116 12.0289C24.9493 11.9848 24.987 11.8966 24.987 11.8084C24.987 11.7201 24.9493 11.632 24.9116 11.5879C24.8746 11.5438 24.7985 11.4997 24.6861 11.4997C24.0844 11.4555 23.3695 11.4997 23.3695 10.5293C23.3695 10.0882 23.5957 9.69127 24.1598 9.60304L23.7465 9.11786C23.6711 9.16198 23.6334 9.20609 23.5957 9.20609V8.94141H21.8659C21.6027 8.94141 21.2641 9.02964 21.1141 9.20609V8.94141H18.0314V9.20609C17.8052 8.98552 17.3912 8.94141 17.2041 8.94141H15.1734V9.20609C14.9856 8.98552 14.5339 8.94141 14.3085 8.94141H12.053L11.5259 9.60304L11.0373 8.94141H10.624L11.7514 10.2646L12.3162 9.55885H14.3085C14.7971 9.55885 15.3612 9.73531 15.3612 10.5734C15.3612 11.4555 14.8348 11.632 14.2708 11.632H13.519V12.2936L14.083 12.9552V12.2936H14.2708C14.534 12.2936 14.8725 12.2936 15.1357 12.1613V13.3521H16.8279V12.2053H16.9025C17.0156 12.2053 17.0156 12.2053 17.0156 12.3377V13.3521H22.129C22.4676 13.3521 22.8062 13.2639 22.994 13.0875V13.3521H24.6115C24.9116 13.3963 25.2502 13.3521 25.5133 13.1758ZM18.0314 11.5879C18.106 11.7201 18.1437 11.8966 18.1437 12.1613V12.7788H17.5043V12.3818C17.5043 12.2053 17.5043 11.8966 17.3912 11.7643C17.3165 11.632 17.1664 11.632 16.941 11.632H16.2638V12.7788H15.6244V9.64708H17.0533C17.3542 9.64708 17.6174 9.64708 17.8052 9.7795C17.9929 9.91177 18.1437 10.1323 18.1437 10.4852C18.1437 10.9704 17.8798 11.235 17.6928 11.3233C17.8798 11.4114 17.9929 11.4997 18.0314 11.5879ZM20.6254 10.3088H19.1587V10.8821H20.5877V11.4997H19.1587V12.1171H20.6254V12.7788H18.52V9.64708H20.6254V10.3088ZM22.2045 12.7788H21.0017V12.1171H22.2045C22.3176 12.1171 22.3922 12.1171 22.4676 12.0289C22.5053 11.9848 22.543 11.8966 22.543 11.8084C22.543 11.7201 22.5053 11.632 22.4676 11.5879C22.4307 11.5438 22.3545 11.4997 22.2422 11.4997C21.6404 11.4555 20.9255 11.4997 20.9255 10.5293C20.9255 10.0882 21.1517 9.60304 21.8289 9.60304H23.0694V10.3528H21.9036C21.7905 10.3528 21.7158 10.3528 21.6404 10.397C21.5657 10.4411 21.5657 10.5293 21.5657 10.6175C21.5657 10.7499 21.6404 10.7939 21.7158 10.8381C21.7905 10.8821 21.8659 10.8821 21.9413 10.8821H22.2791C22.6177 10.8821 22.8439 10.9704 22.994 11.1468C23.1064 11.2791 23.1825 11.4997 23.1825 11.8084C23.1825 12.47 22.8439 12.7788 22.2045 12.7788Z" fill="#58CAFF"/>
<path id="Vector_21" d="M24.0059 10.6158C24.0059 10.7481 24.0436 10.7922 24.1559 10.8363C24.2321 10.8804 24.3067 10.8804 24.3821 10.8804H24.7207C24.9462 10.8804 25.0963 10.9246 25.2471 11.0128L24.6823 10.3511H24.3444C24.2321 10.3511 24.1559 10.3511 24.0813 10.3953C24.0436 10.4393 24.0059 10.5275 24.0059 10.6158Z" fill="#58CAFF"/>
<path id="Vector_22" d="M22.6924 7.97119L22.7685 8.10384H22.8062L22.6924 7.97119Z" fill="#58CAFF"/>
<path id="Vector_23" d="M20.624 5.5459L21.2635 7.35428V6.29572L20.624 5.5459Z" fill="#58CAFF"/>
<path id="Vector_24" d="M14.1935 6.99994H14.2682C14.3436 6.99994 14.3436 6.99994 14.3436 7.13233V8.10266H17.0507V7.83797C17.2769 7.97039 17.6155 8.10266 18.0657 8.10266H19.1946L19.4193 7.39693H19.9464L20.1719 8.10266H22.3519V7.66159L21.8263 7.0441V7.52922H20.5481L20.3596 6.82358H19.043L18.8183 7.52922H18.1042C17.8026 7.52922 17.427 7.44109 17.2008 7.1764C16.9753 6.91172 16.8622 6.55889 16.8622 5.98551C16.8622 5.54442 16.9384 5.10335 17.2008 4.75049C17.3893 4.48584 17.7279 4.39762 18.1411 4.39762H18.7429V5.05924H18.1411C17.9157 5.05924 17.8026 5.10335 17.6525 5.23567C17.5394 5.368 17.464 5.63264 17.464 5.94139C17.464 6.29425 17.5024 6.51479 17.6525 6.69119C17.7656 6.82358 17.9157 6.86765 18.1042 6.86765H18.3673L19.2315 4.44173H19.6078L19.0815 3.82422H18.1042C17.6902 3.82422 17.3516 3.91244 17.0507 4.08887V3.82422H15.3963V4.08887C15.2085 3.91244 14.983 3.82422 14.6822 3.82422H8.62841L8.21516 4.92692L7.80119 3.82422H6.14746L6.67309 4.44173H7.42492L8.06436 6.07371L8.28984 6.33836L8.96699 4.39762H10.0197V7.52922H9.38024V5.10335L8.74151 6.86765L9.83191 8.14685H14.1551L14.1935 6.99994ZM15.9234 4.39762H16.5621V7.52922H15.9234V4.39762ZM12.6145 5.05924H11.1478V5.63264H12.576V6.25014H11.1478V6.86765H12.6145V7.52922H10.5083V4.39762H12.6145V5.05924ZM13.6664 7.48516H13.0277V4.35351H14.4567C14.7953 4.35351 15.02 4.35351 15.2085 4.48584C15.3963 4.61816 15.5087 4.83869 15.5087 5.19156C15.5087 5.67675 15.2462 5.94139 15.0584 6.0296C15.2085 6.07371 15.3216 6.20604 15.3586 6.29425C15.434 6.47069 15.4717 6.60296 15.4717 6.86765V7.48516H14.833V7.08817C14.833 6.91172 14.833 6.64712 14.7199 6.47069C14.6822 6.38247 14.5698 6.38247 14.3436 6.38247H13.6664V7.48516Z" fill="#58CAFF"/>
</g>
</g>
</g>
</svg>
