<svg width="29" height="17" viewBox="0 0 29 17" fill="none" xmlns="http://www.w3.org/2000/svg">
<g id="Clip path group">
<mask id="mask0_6303_813" style="mask-type:luminance" maskUnits="userSpaceOnUse" x="0" y="0" width="29" height="17">
<g id="a">
<path id="Vector" d="M29 0.666504H0V16.6665H29V0.666504Z" fill="white"/>
</g>
</mask>
<g mask="url(#mask0_6303_813)">
<g id="Group">
<path id="Vector_2" d="M27.7718 0.666504H1.22817C0.549871 0.666504 0 1.24437 0 1.95719V15.5095C0 16.2223 0.549871 16.8001 1.22817 16.8001H27.7718C28.4501 16.8001 29 16.2223 29 15.5095V1.95719C29 1.24437 28.4501 0.666504 27.7718 0.666504Z" fill="white"/>
<path id="Vector_3" d="M14.0936 8.67678V10.8542H13.4463V5.47932H15.1632C15.5773 5.47074 15.9794 5.6379 16.2728 5.9465C16.8599 6.52942 16.8961 7.51095 16.3453 8.14101C16.3211 8.16676 16.297 8.19244 16.2728 8.21819C15.9713 8.5225 15.6014 8.67678 15.1632 8.67678H14.0936ZM14.0936 6.13938V8.01674H15.1793C15.4205 8.02528 15.6537 7.92242 15.8186 7.73811C16.1563 7.36522 16.1482 6.76516 15.7984 6.40512C15.6335 6.23367 15.4124 6.13938 15.1793 6.13938H14.0936Z" fill="#58CAFF"/>
<path id="Vector_4" d="M18.2297 7.05615C18.7081 7.05615 19.0861 7.1933 19.3635 7.46333C19.641 7.73339 19.7777 8.11053 19.7777 8.58634V10.8537H19.1585V10.3436H19.1303C18.861 10.7636 18.5071 10.9737 18.0609 10.9737C17.6828 10.9737 17.3612 10.8537 17.1079 10.6136C16.8586 10.3908 16.7179 10.0607 16.7259 9.71358C16.7259 9.33209 16.8626 9.03205 17.1321 8.80493C17.4014 8.57773 17.7633 8.46626 18.2136 8.46626C18.5996 8.46626 18.9132 8.54344 19.1625 8.6892V8.53057C19.1625 8.29483 19.066 8.07198 18.8971 7.91769C18.7242 7.7548 18.5031 7.66482 18.2739 7.66482C17.9121 7.66482 17.6266 7.82763 17.4175 8.15342L16.8466 7.77194C17.1521 7.29618 17.6145 7.05615 18.2297 7.05615ZM17.3933 9.72645C17.3933 9.90641 17.4738 10.0736 17.6065 10.1764C17.7512 10.2965 17.9281 10.3607 18.1091 10.3565C18.3825 10.3565 18.6438 10.2407 18.8368 10.035C19.0499 9.8207 19.1585 9.56782 19.1585 9.2764C18.9575 9.10489 18.676 9.01918 18.3141 9.02352C18.0528 9.02352 17.8316 9.09209 17.6547 9.22497C17.4819 9.35784 17.3933 9.52501 17.3933 9.72645Z" fill="#58CAFF"/>
<path id="Vector_5" fill-rule="evenodd" clip-rule="evenodd" d="M23.3315 7.17676L21.1683 12.4701H20.5009L21.3051 10.6185L19.8857 7.17676H20.5894L21.6146 9.81702H21.6267L22.6279 7.17676H23.3315Z" fill="#58CAFF"/>
<path id="Vector_6" fill-rule="evenodd" clip-rule="evenodd" d="M11.4746 8.2044C11.4746 7.99434 11.4585 7.78436 11.4263 7.57861H8.69629V8.76584H10.2603C10.196 9.14733 9.98693 9.49026 9.68135 9.70451V10.476H10.6142C11.161 9.94024 11.4746 9.14733 11.4746 8.2044Z" fill="#58CAFF"/>
<path id="Vector_7" fill-rule="evenodd" clip-rule="evenodd" d="M8.69569 11.2221C9.47571 11.2221 10.1351 10.9477 10.6136 10.4763L9.68074 9.70476C9.41938 9.89333 9.08566 10.0005 8.69569 10.0005C7.9398 10.0005 7.3005 9.45615 7.0713 8.72754H6.11035V9.52472C6.60088 10.5662 7.60202 11.2221 8.69569 11.2221Z" fill="#58CAFF"/>
<path id="Vector_8" fill-rule="evenodd" clip-rule="evenodd" d="M7.07234 8.72737C6.95171 8.34589 6.95171 7.93019 7.07234 7.5444V6.75146H6.11138C5.69725 7.62155 5.69725 8.65019 6.11138 9.52029L7.07234 8.72737Z" fill="#58CAFF"/>
<path id="Vector_9" fill-rule="evenodd" clip-rule="evenodd" d="M8.69569 6.27252C9.10981 6.26394 9.5079 6.43111 9.80537 6.73543L10.6337 5.85248C10.107 5.32957 9.41539 5.0424 8.69569 5.05097C7.60202 5.05097 6.60088 5.71104 6.11035 6.75257L7.0713 7.54979C7.3005 6.81686 7.9398 6.27252 8.69569 6.27252Z" fill="#58CAFF"/>
</g>
</g>
</g>
</svg>
