<svg width="29" height="17" viewBox="0 0 29 17" fill="none" xmlns="http://www.w3.org/2000/svg">
<g id="Clip path group">
<mask id="mask0_6303_849" style="mask-type:luminance" maskUnits="userSpaceOnUse" x="0" y="0" width="29" height="17">
<g id="d">
<path id="Vector" d="M29 0.666504H0V16.6665H29V0.666504Z" fill="white"/>
</g>
</mask>
<g mask="url(#mask0_6303_849)">
<g id="Group">
<path id="Vector_2" d="M27.7718 0.666504H1.22817C0.549872 0.666504 0 1.24437 0 1.95719V15.5095C0 16.2223 0.549872 16.8001 1.22817 16.8001H27.7718C28.4501 16.8001 29 16.2223 29 15.5095V1.95719C29 1.24437 28.4501 0.666504 27.7718 0.666504Z" fill="white"/>
<path id="Vector_3" d="M14.4624 12.0734C14.495 12.1012 14.5313 12.129 14.5661 12.1561C13.8701 12.6128 13.053 12.856 12.2178 12.8553C11.661 12.8556 11.1093 12.7476 10.5945 12.5372C10.0798 12.3269 9.61217 12.0183 9.21777 11.6293C8.82409 11.2401 8.51161 10.7781 8.29846 10.2697C8.08604 9.76116 7.97656 9.21609 7.97656 8.66577C7.97656 7.90782 8.18464 7.16396 8.57831 6.51354C8.97199 5.8631 9.53677 5.33041 10.2132 4.97217C10.8896 4.61393 11.6509 4.44359 12.4172 4.47925C13.1835 4.51492 13.9252 4.75527 14.5646 5.17471C14.5298 5.20389 14.495 5.23037 14.4689 5.26023C13.9745 5.68264 13.5772 6.20545 13.3046 6.79309C13.0327 7.38072 12.8913 8.01944 12.8913 8.66577C12.8913 9.9722 13.4634 11.2142 14.4624 12.0734ZM17.4574 4.47569C16.6229 4.47409 15.8066 4.71736 15.1113 5.17471C15.1454 5.20389 15.1794 5.23037 15.2055 5.26023C16.2097 6.11739 16.7846 7.36004 16.7846 8.66577C16.7846 9.9716 16.2111 11.2128 15.2135 12.0734C15.1794 12.1012 15.1439 12.129 15.1098 12.1561C15.8051 12.613 16.6215 12.8562 17.4567 12.8553C18.0185 12.8623 18.5753 12.7592 19.0966 12.5519C19.6164 12.3445 20.0906 12.037 20.4908 11.6473C20.8895 11.2576 21.2071 10.7934 21.4239 10.2815C21.6399 9.76977 21.7516 9.22051 21.7516 8.66577C21.7516 8.11102 21.6399 7.56185 21.4239 7.04997C21.2071 6.53812 20.8903 6.07383 20.4908 5.68404C20.0913 5.29426 19.6172 4.98673 19.0973 4.7793C18.5761 4.57188 18.0193 4.46867 17.4574 4.47569ZM14.838 5.37425C14.3326 5.76547 13.9245 6.26519 13.6446 6.83551C13.364 7.40585 13.2183 8.03171 13.2198 8.66577C13.2176 9.3002 13.3633 9.92657 13.6439 10.4972C13.9245 11.068 14.3326 11.568 14.838 11.9593C15.3433 11.5679 15.7515 11.0677 16.0313 10.4971C16.3119 9.92649 16.4576 9.3002 16.4562 8.66577C16.4576 8.03163 16.3119 7.40566 16.0313 6.83535C15.7515 6.26501 15.3433 5.76533 14.838 5.37425Z" fill="#58CAFF"/>
</g>
</g>
</g>
</svg>
