<svg width="86" height="96" viewBox="0 0 86 96" fill="none" xmlns="http://www.w3.org/2000/svg">
<path d="M46.7321 26.5074V1.9104H37.8365V26.5074C27.747 28.5373 20.2246 37.4925 20.2246 48.1194C20.2246 60.2985 30.1351 70.2089 42.3142 70.2089C54.4933 70.2089 64.4037 60.2985 64.4037 48.1194C64.344 37.4925 56.8216 28.5373 46.7321 26.5074Z" fill="#ECF4FF"/>
<path d="M50.074 2.68657C50.074 4.1791 48.88 5.37313 47.3874 5.37313H37.2382C35.8054 5.37313 34.6113 4.1791 34.6113 2.68657C34.6113 1.19403 35.8054 0 37.2979 0H47.4471C48.88 0 50.074 1.19403 50.074 2.68657Z" fill="#9CC8FF"/>
<path d="M49.0615 38.1494C49.0615 36.5971 50.3153 35.2837 51.9272 35.2837C53.4794 35.2837 54.7929 36.5374 54.7929 38.1494C54.7929 39.7016 53.5391 41.015 51.9272 41.015C50.375 41.015 49.0615 39.7016 49.0615 38.1494Z" fill="#FFB948"/>
<path d="M42.0762 34.3284C42.0762 33.4925 42.7926 32.7761 43.6284 32.7761C44.4642 32.7761 45.1806 33.4925 45.1806 34.3284C45.1806 35.1642 44.5239 35.8806 43.6284 35.8806C42.7329 35.8209 42.0762 35.1642 42.0762 34.3284Z" fill="#FFB948"/>
<path d="M44.9414 43.2239C44.9414 42.388 45.5981 41.6716 46.4936 41.6716C47.3295 41.6716 48.0459 42.3283 48.0459 43.2239C48.0459 44.0597 47.3295 44.7761 46.4936 44.7761C45.6578 44.7164 44.9414 44.0597 44.9414 43.2239Z" fill="#FFB948"/>
<path d="M35.9863 41.0151C35.9863 39.4628 37.2401 38.1494 38.852 38.1494C40.4042 38.1494 41.7177 39.4031 41.7177 41.0151C41.7177 42.5673 40.4639 43.8808 38.852 43.8808C37.2401 43.8211 35.9863 42.5673 35.9863 41.0151Z" fill="#FFB948"/>
<path d="M33.001 33.791C33.001 32.7761 33.8368 32 34.792 32C35.8069 32 36.5831 32.8358 36.5831 33.791C36.5831 34.806 35.7472 35.5821 34.792 35.5821C33.8368 35.5821 33.001 34.7463 33.001 33.791Z" fill="#FFB948"/>
<path d="M39.9269 43.045C34.2553 40.4778 28.1657 40.3584 23.3896 40.9554C22.5538 43.1644 22.0762 45.6121 22.0762 48.1196C22.0762 59.1644 31.0314 68.1196 42.0762 68.1196C53.1209 68.1196 62.0762 59.1644 62.0762 48.1196C62.0762 45.9106 61.718 43.7614 61.0612 41.7315C54.912 44.1196 46.5538 46.0897 39.9269 43.045Z" fill="#FF8415"/>
<path d="M61.2369 41.7914C55.1474 44.1197 46.7892 46.0899 40.1623 43.1048C34.4907 40.5376 28.4011 40.4182 23.625 41.0152C23.625 41.0152 30.0728 41.0152 37.834 46.3287C45.5951 51.6421 56.9384 47.6421 61.2369 41.7914Z" fill="#FFB948"/>
<path d="M19.925 49.7312C15.5071 64.3581 11.0892 78.985 6.67128 93.6118C6.13397 95.3432 8.82054 96.0596 9.29815 94.3282C13.7161 79.7014 18.134 65.0745 22.5519 50.4476C23.0892 48.776 20.4623 48.0596 19.925 49.7312Z" fill="#ECF4FF"/>
<path d="M65.8347 49.7312C70.2526 64.3581 74.6705 78.985 79.0884 93.6118C79.6257 95.3432 76.9391 96.0596 76.4615 94.3282C72.0436 79.7014 67.6257 65.0745 63.2078 50.4476C62.6705 48.776 65.2973 48.0596 65.8347 49.7312Z" fill="#ECF4FF"/>
<path d="M74.6121 50.0895C74.6121 51.9402 73.1196 53.3731 71.3285 53.3731H14.433C12.5822 53.3731 11.1494 51.8805 11.1494 50.0895C11.1494 48.2387 12.642 46.8059 14.433 46.8059H71.2688C73.1196 46.8059 74.6121 48.2984 74.6121 50.0895Z" fill="#9CC8FF"/>
<path d="M0.940298 90.2087C32.9403 90.2087 53 90.2087 85.0597 90.2087C86.3134 90.2087 86.3134 88.2385 85.0597 88.2385C53.0597 88.2385 33 88.2385 0.940298 88.2385C-0.313433 88.2385 -0.313433 90.2087 0.940298 90.2087Z" fill="#9CC8FF"/>
<path d="M55.7469 84.8359H29.1797V88.2389H55.7469V84.8359Z" fill="#8044E0"/>
<path d="M42.432 85.4927C42.432 85.4927 42.3723 85.433 42.2529 85.3733C42.1335 85.2538 41.9544 85.1344 41.7753 84.9553C41.4171 84.5971 40.9395 84.1195 40.5216 83.5225C40.1037 82.9255 39.7455 82.2091 39.5066 81.4927C39.2678 80.7762 39.1484 79.9404 39.1484 79.1643C39.1484 78.3882 39.2678 77.5524 39.5066 76.8359C39.7455 76.1195 40.1037 75.4031 40.5216 74.8061C40.9395 74.2091 41.3574 73.7315 41.7753 73.3733C41.9544 73.1941 42.1335 73.0747 42.2529 72.9553C42.3723 72.8359 42.432 72.8359 42.432 72.8359C42.432 72.8359 42.4917 72.8956 42.6111 72.9553C42.7305 73.0747 42.9096 73.1941 43.0887 73.3733C43.4469 73.7315 43.9246 74.2091 44.3425 74.8061C44.7604 75.4031 45.1186 76.1195 45.3574 76.8359C45.5962 77.5524 45.7156 78.3882 45.7156 79.1643C45.7156 79.9404 45.5962 80.7762 45.3574 81.4927C45.1186 82.2091 44.7604 82.9255 44.3425 83.5225C43.9246 84.1195 43.5066 84.5971 43.0887 84.9553C42.9096 85.1344 42.7305 85.2538 42.6111 85.3733C42.5514 85.433 42.432 85.4927 42.432 85.4927Z" fill="#FF8415"/>
<path d="M42.4315 84.7764C42.4315 84.7764 42.3718 84.7167 42.3121 84.657C42.2524 84.5973 42.133 84.4779 42.0136 84.4182C41.7748 84.1794 41.4763 83.8809 41.1777 83.463C40.9389 83.0451 40.6404 82.6272 40.521 82.0899C40.3419 81.6123 40.2822 81.0749 40.2822 80.5376C40.2822 80.0003 40.3419 79.463 40.521 78.9854C40.7001 78.5078 40.9389 78.0302 41.1777 77.6123C41.4763 77.1943 41.7748 76.8958 42.0136 76.657C42.133 76.5376 42.2524 76.4779 42.3121 76.4182C42.3718 76.3585 42.4315 76.2988 42.4315 76.2988C42.4315 76.2988 42.4912 76.3585 42.5509 76.4182C42.6106 76.4779 42.73 76.5973 42.8494 76.657C43.0882 76.8958 43.3867 77.1943 43.6852 77.6123C43.9837 78.0302 44.2225 78.4481 44.3419 78.9854C44.521 79.463 44.5807 80.0003 44.5807 80.5376C44.5807 81.0749 44.521 81.6123 44.3419 82.0899C44.1628 82.5675 43.924 83.0451 43.6852 83.463C43.4464 83.8809 43.0882 84.1794 42.8494 84.4182C42.73 84.5376 42.6106 84.5973 42.5509 84.657C42.4912 84.7167 42.4315 84.7764 42.4315 84.7764Z" fill="#FFD217"/>
</svg>
