<svg width="137" height="132" viewBox="0 0 137 132" fill="none" xmlns="http://www.w3.org/2000/svg">
<path opacity="0.14" d="M103.887 106.619L54.4521 106.672C54.0524 106.684 53.7141 106.343 53.7555 105.956L53.6506 38.6751C53.6388 38.2753 53.9798 37.937 54.366 37.9786L103.768 37.9451C104.168 37.9335 104.506 38.2747 104.464 38.6609L104.569 105.942C104.595 106.289 104.254 106.627 103.887 106.619Z" fill="#3E479B"/>
<path d="M101.728 105.19L52.3261 105.224C51.9265 105.235 51.5881 104.894 51.6296 104.508L51.5246 37.2266C51.5128 36.8268 51.8538 36.4885 52.24 36.5302L101.642 36.4966C102.042 36.485 102.38 36.8262 102.338 37.2124L102.443 104.494C102.435 104.86 102.128 105.179 101.728 105.19Z" fill="#EBF4FF"/>
<path opacity="0.14" d="M98.9712 102.407L49.5698 102.337C49.1738 102.331 48.8364 101.998 48.8427 101.602L48.9076 34.324C48.9139 33.9279 49.2468 33.5903 49.6428 33.5968L99.0442 33.6659C99.4402 33.6723 99.7776 34.0054 99.7713 34.4016L99.7064 101.679C99.6619 102.082 99.3671 102.413 98.9712 102.407Z" fill="#3E479B"/>
<path d="M47.5381 31.9845L47.4731 100.709L98.3042 100.766L98.3691 32.0412L47.5381 31.9845Z" fill="#EBF4FF"/>
<path opacity="0.39" d="M97.602 100.762L48.2006 100.692C47.8046 100.686 47.4672 100.353 47.4736 99.9567L47.5384 32.679C47.5448 32.2828 47.8777 31.9453 48.2737 31.9517L97.6751 32.0208C98.0711 32.0273 98.4085 32.3604 98.4021 32.7565L98.3373 100.034C98.3309 100.43 97.998 100.768 97.602 100.762Z" fill="#EBF4FF"/>
<path d="M66.619 52.2585C66.5808 52.2655 66.5808 52.2655 66.5426 52.2725L54.188 52.2856C53.99 52.2824 53.8022 52.1193 53.7984 51.883C53.8015 51.685 53.9645 51.4971 54.2007 51.4933L66.5623 51.5184C66.7603 51.5216 66.9481 51.6847 66.952 51.921C66.9418 52.0808 66.81 52.2235 66.619 52.2585Z" fill="#519AF4"/>
<path d="M91.3614 70.5832C91.3232 70.5902 91.3232 70.5902 91.285 70.5972L53.4985 70.5715C53.3005 70.5683 53.1127 70.4052 53.1089 70.1689C53.1121 69.9709 53.275 69.783 53.5112 69.7792L91.2977 69.8049C91.4957 69.8081 91.6835 69.9711 91.6873 70.2074C91.6842 70.4055 91.5524 70.5481 91.3614 70.5832Z" fill="#519AF4"/>
<path d="M91.6075 64.1662C91.5693 64.1732 91.5693 64.1732 91.5311 64.1802L53.7446 64.1545C53.5466 64.1513 53.3588 63.9882 53.355 63.7519C53.3582 63.5539 53.5211 63.366 53.7573 63.3622L91.5438 63.3879C91.7418 63.3911 91.9296 63.5541 91.9334 63.7904C91.9303 63.9885 91.7985 64.1312 91.6075 64.1662Z" fill="#519AF4"/>
<path d="M91.3639 85.2362C91.3257 85.2432 91.3257 85.2432 91.2875 85.2502L53.501 85.2246C53.303 85.2214 53.1152 85.0583 53.1113 84.822C53.1145 84.6239 53.2775 84.4361 53.5137 84.4323L91.3002 84.4579C91.4981 84.4611 91.686 84.6242 91.6898 84.8605C91.6866 85.0586 91.5548 85.2012 91.3639 85.2362Z" fill="#519AF4"/>
<path d="M71.4622 77.9043C71.424 77.9113 71.424 77.9113 71.3858 77.9183L53.4946 77.8798C53.2966 77.8766 53.1088 77.7136 53.105 77.4773C53.1082 77.2792 53.2711 77.0913 53.5073 77.0875L71.3533 77.0948C71.5513 77.098 71.7391 77.2611 71.743 77.4974C71.7398 77.6955 71.615 77.8763 71.4622 77.9043Z" fill="#519AF4"/>
<path d="M71.5025 58.4412C71.4643 58.4482 71.4643 58.4482 71.4261 58.4552L53.5801 58.448C53.3821 58.4447 53.1943 58.2817 53.1905 58.0454C53.1936 57.8473 53.3566 57.6595 53.5928 57.6557L71.4388 57.6629C71.6368 57.6661 71.8246 57.8292 71.8284 58.0655C71.8252 58.2636 71.6935 58.4062 71.5025 58.4412Z" fill="#519AF4"/>
<path d="M91.3511 77.8529C91.3129 77.8599 91.3129 77.8599 91.2747 77.8669L74.29 77.8203C74.092 77.8171 73.9042 77.654 73.9004 77.4177C73.9036 77.2196 74.0665 77.0318 74.3027 77.028L91.3186 77.0294C91.5166 77.0326 91.7044 77.1957 91.7082 77.432C91.6739 77.6753 91.5421 77.8179 91.3511 77.8529Z" fill="#519AF4"/>
<path d="M29.7073 64.0001C29.7073 54.4139 13.6624 38.369 4.07617 38.369C13.6624 38.369 29.7073 22.324 29.7073 12.7378C29.7073 22.324 45.7523 38.369 55.3385 38.369C45.7523 38.369 29.7073 54.4139 29.7073 64.0001Z" fill="#FFD83B"/>
<path d="M29.7078 48.4644C29.7078 44.6898 23.3869 38.3689 19.6123 38.3689C23.3869 38.3689 29.7078 32.048 29.7078 28.2734C29.7078 32.048 36.0287 38.3689 39.8033 38.3689C36.0267 38.3689 29.7078 44.6878 29.7078 48.4644Z" fill="#F3C432"/>
<path d="M47.5777 28.2733C47.5777 23.6559 39.8488 15.9271 35.2314 15.9271C39.8488 15.9271 47.5777 8.19817 47.5777 3.58081C47.5777 8.19817 55.3066 15.9271 59.9239 15.9271C55.3066 15.9271 47.5777 23.6559 47.5777 28.2733Z" fill="#FFD83B"/>
<path d="M11.6054 63.0793C11.6054 60.7007 7.62516 56.7204 5.24658 56.7204C7.62516 56.7204 11.6054 52.7402 11.6054 50.3616C11.6054 52.7402 15.5857 56.7204 17.9643 56.7204C15.5857 56.7224 11.6054 60.7027 11.6054 63.0793Z" fill="#FFD83B"/>
<path d="M19.8077 17.6506C19.8077 14.3494 14.2837 8.82531 10.9824 8.82531C14.2837 8.82531 19.8077 3.30125 19.8077 0C19.8077 3.30125 25.3318 8.82531 28.633 8.82531C25.3318 8.82531 19.8077 14.3494 19.8077 17.6506Z" fill="#FFD83B"/>
</svg>
