<svg width="101" height="117" viewBox="0 0 101 117" fill="none" xmlns="http://www.w3.org/2000/svg">
<path opacity="0.14" d="M50.5664 93.1509L7.31144 69.2864C6.96756 69.09 6.83242 68.6355 7.02887 68.2914L39.5033 9.37023C39.6998 9.02616 40.1541 8.89083 40.498 9.08725L83.7529 32.9518C84.0968 33.1482 84.232 33.6027 84.0355 33.9468L51.5611 92.8679C51.3278 93.1997 50.9102 93.3473 50.5664 93.1509Z" fill="#3E479B"/>
<path d="M40.1904 6.56352L5.9707 66.1631L50.0482 91.4807L84.2679 31.8811L40.1904 6.56352Z" fill="#EBF4FF"/>
<path opacity="0.39" d="M50.1591 91.0496L6.90421 67.1851C6.56033 66.9887 6.42519 66.5342 6.62163 66.1901L39.0961 7.26891C39.2926 6.92484 39.7469 6.78952 40.0908 6.98594L83.3457 30.8505C83.6896 31.0469 83.8247 31.5014 83.6283 31.8454L51.1538 90.7666C50.9574 91.1107 50.503 91.246 50.1591 91.0496Z" fill="#EBF4FF"/>
<rect x="57.4092" y="33.822" width="15" height="1" rx="0.5" transform="rotate(29.0528 57.4092 33.822)" fill="#519AF4"/>
<rect x="54.9814" y="38.1934" width="15" height="1" rx="0.5" transform="rotate(29.0528 54.9814 38.1934)" fill="#519AF4"/>
<rect x="48.1826" y="50.4316" width="15" height="1" rx="0.5" transform="rotate(29.0528 48.1826 50.4316)" fill="#519AF4"/>
<rect x="45.7549" y="54.8022" width="15" height="1" rx="0.5" transform="rotate(29.0528 45.7549 54.8022)" fill="#519AF4"/>
<rect x="37.0137" y="70.5371" width="15" height="1" rx="0.5" transform="rotate(29.0528 37.0137 70.5371)" fill="#519AF4"/>
<rect x="39.4414" y="66.1667" width="15" height="1" rx="0.5" transform="rotate(29.0528 39.4414 66.1667)" fill="#519AF4"/>
<rect x="42.7422" y="21.0986" width="13" height="13" rx="1" transform="rotate(29.0528 42.7422 21.0986)" fill="#FFD285"/>
<path d="M41.7281 27.0697L42.8127 31.635L50.7626 29.1598" stroke="white" stroke-width="1.5" stroke-linecap="round" stroke-linejoin="round"/>
<rect x="33.5156" y="37.7078" width="13" height="13" rx="1" transform="rotate(29.0528 33.5156 37.7078)" fill="#FFD285"/>
<path d="M32.5016 43.6789L33.5861 48.2442L41.536 45.7689" stroke="white" stroke-width="1.5" stroke-linecap="round" stroke-linejoin="round"/>
<rect x="24.2891" y="54.3174" width="13" height="13" rx="1" transform="rotate(29.0528 24.2891 54.3174)" fill="#FFD285"/>
<path d="M23.275 60.2885L24.3596 64.8538L32.3095 62.3786" stroke="white" stroke-width="1.5" stroke-linecap="round" stroke-linejoin="round"/>
<path opacity="0.21" d="M71.0615 83.4684C77.1099 74.2523 74.5421 61.878 65.326 55.8295C56.1099 49.781 43.7355 52.3489 37.6871 61.565C31.6386 70.7811 34.2065 83.1554 43.4226 89.2039C52.6387 95.2524 65.013 92.6845 71.0615 83.4684Z" fill="white"/>
<path opacity="0.76" d="M39.3465 77.0978C38.6672 77.2387 37.9961 76.7983 37.8552 76.119C35.8113 66.2699 42.173 56.5766 52.0221 54.5328C52.7014 54.3918 53.3724 54.8322 53.5134 55.5115C53.6544 56.1907 53.2139 56.8618 52.5347 57.0028C44.0441 58.7647 38.5632 67.1159 40.3252 75.6065C40.4661 76.2857 40.0257 76.9568 39.3465 77.0978Z" fill="white"/>
<path opacity="0.58" d="M58.5563 92.6919C47.4413 94.9984 36.5177 87.8293 34.2111 76.7143C31.9046 65.5993 39.0737 54.6757 50.1887 52.3692C61.3037 50.0627 72.2273 57.2318 74.5338 68.3468C76.8404 79.4618 69.6713 90.3854 58.5563 92.6919ZM50.445 53.6042C40.0092 55.7698 33.2806 66.0223 35.4461 76.4581C37.6117 86.8938 47.8643 93.6225 58.3 91.4569C68.7357 89.2913 75.4644 79.0388 73.2988 68.603C71.1333 58.1673 60.8807 51.4386 50.445 53.6042Z" fill="#3E479B"/>
<path d="M75.2125 82.7944C75.2369 82.7571 75.2614 82.7199 75.2923 82.7135C77.4554 78.239 78.2466 73.0509 77.1574 67.8022C74.5434 55.2052 62.203 47.1063 49.6369 49.7139C37.0708 52.3216 28.941 64.6683 31.5551 77.2653C34.1692 89.8623 46.5095 97.9612 59.1065 95.3471C64.3244 94.2644 68.7757 91.505 71.9891 87.7465L74.0689 84.5776L75.2125 82.7944ZM58.4274 92.0744C47.6211 94.3169 37.0703 87.3924 34.8279 76.5862C32.5854 65.7799 39.5098 55.2291 50.3161 52.9867C61.1223 50.7442 71.6731 57.6687 73.9156 68.4749C76.1516 79.2503 69.2027 89.8383 58.4274 92.0744Z" fill="#3E479B"/>
<path d="M59.1639 95.6251C46.4126 98.2712 33.8858 90.0499 31.2461 77.3295C28.6 64.5781 36.8213 52.0513 49.5726 49.4052C62.324 46.7591 74.8507 54.9804 77.4968 67.7317C78.5668 72.8879 77.9119 78.1121 75.6084 82.8411L75.5594 82.9157C75.535 82.9529 75.5041 82.9593 75.5105 82.9902L72.2562 87.9487C68.797 91.9192 64.2892 94.5615 59.1639 95.6251ZM49.7008 50.0227C37.289 52.5984 29.288 64.7896 31.8636 77.2013C34.4393 89.6131 46.6305 97.6141 59.0422 95.0384C64.0131 94.0069 68.4347 91.4147 71.7588 87.5689L74.9885 82.6477C75.013 82.6104 75.0375 82.5731 75.0619 82.5358C77.2985 77.9495 77.9173 72.8616 76.8793 67.8599C74.2728 55.4545 62.0816 47.4535 49.7008 50.0227ZM58.4912 92.3832C47.5306 94.6577 36.7934 87.6109 34.5189 76.6503C32.2444 65.6897 39.2912 54.9525 50.2518 52.678C61.2124 50.4035 71.9496 57.4503 74.2241 68.4109C76.4986 79.3715 69.4209 90.1151 58.4912 92.3832ZM50.3799 53.2955C39.7898 55.4931 32.9324 65.9012 35.1364 76.5222C37.334 87.1123 47.7421 93.9697 58.3631 91.7657C68.9532 89.5681 75.8106 79.16 73.6066 68.539C71.4026 57.918 60.97 51.0979 50.3799 53.2955Z" fill="#3E479B"/>
<path d="M75.3998 86.4913L74.3186 85.7818C73.9085 85.5126 73.7932 84.9569 74.0623 84.5468L71.9825 87.7157L71.9581 87.753C71.6889 88.1631 71.8042 88.7189 72.2143 88.988L73.5192 89.8444C73.7371 89.1873 74.5189 87.8335 75.3998 86.4913Z" fill="#4C65BA"/>
<path d="M74.0617 84.5466C73.7926 84.9567 73.9079 85.5125 74.318 85.7816L75.3992 86.4912C76.2556 85.1863 77.1556 83.9368 77.6834 83.3764L76.4531 82.569C76.0803 82.3243 75.5799 82.3959 75.298 82.7443C75.2735 82.7816 75.249 82.8188 75.2181 82.8252L74.0617 84.5466Z" fill="#4C65BA"/>
<path opacity="0.43" d="M74.0617 84.5466C73.7926 84.9567 73.9079 85.5125 74.318 85.7816L75.3992 86.4912C76.2556 85.1863 77.1556 83.9368 77.6834 83.3764L76.4531 82.569C76.0803 82.3243 75.5799 82.3959 75.298 82.7443C75.2735 82.7816 75.249 82.8188 75.2181 82.8252L74.0617 84.5466Z" fill="#3E479B"/>
<path d="M97.5577 95.9665L78.1326 83.0579C78.058 83.0089 77.892 83.14 77.677 83.3456C77.1492 83.906 76.2183 85.162 75.3928 86.4604C74.5119 87.8026 73.7365 89.1873 73.4878 89.8508C73.4027 90.0616 73.4039 90.2224 73.4412 90.2469L92.8662 103.155C94.8422 104.452 97.4974 103.901 98.7634 101.932C100.091 99.9494 99.5336 97.2633 97.5577 95.9665Z" fill="#599AF2"/>
<path opacity="0.14" d="M97.5579 95.9665L78.1328 83.0579C77.8718 82.8866 76.3898 84.901 75.1483 86.8333C74.109 88.4981 97.4976 103.901 98.7944 101.925C100.091 99.9494 99.5338 97.2633 97.5579 95.9665Z" fill="#3E479B"/>
</svg>
