<svg version="1.1" id="Слой_1" xmlns="http://www.w3.org/2000/svg" xmlns:xlink="http://www.w3.org/1999/xlink" x="0" y="0" viewBox="0 0 128 128.3" xml:space="preserve"><style>.st0{opacity:.14;fill:#3e479b;enable-background:new}.st1{fill:#ebf4ff}.st3{fill:#519af4}.st14{fill:#ffd285}</style><switch><g><path class="st0" d="M56.7 96.6L25.4 58.3c-.3-.3-.2-.8.1-1l52.1-42.6c.3-.3.8-.2 1 .1l31.2 38.3c.3.3.2.8-.1 1L57.6 96.7c-.2.2-.7.2-.9-.1z"/><path class="st1" d="M56.4 94L25.2 55.7c-.3-.3-.2-.8.1-1l52.1-42.6c.3-.3.8-.2 1 .1l31.2 38.3c.3.3.2.8-.1 1L57.4 94.1c-.3.3-.7.2-1-.1z"/><path class="st0" d="M72.5 95.8L30 70.6c-.3-.2-.5-.7-.3-1L64 11.7c.2-.3.7-.5 1-.3l42.5 25.1c.3.2.5.7.3 1l-34.2 58c-.3.3-.7.5-1.1.3z"/><path class="st1" d="M64 9L29 68.2 72.8 94l35-59.2L64 9z"/><path d="M72.2 93.6L29.7 68.5c-.3-.2-.5-.7-.3-1L63.6 9.6c.2-.3.7-.5 1-.3l42.5 25.1c.3.2.5.7.3 1l-34.2 58c-.2.3-.7.5-1 .2z" opacity=".39" fill="#ebf4ff"/><path class="st3" d="M97.9 39.7l-10.7-6.3c-.2-.1-.2-.3-.1-.5s.3-.2.5-.1L98.3 39c.2.1.2.3.1.5s-.3.3-.5.2zM95.9 43.1l-10.7-6.3c-.2-.1-.2-.3-.1-.5s.3-.2.5-.1l10.6 6.3c.2.1.2.3.1.5 0 .1-.2.2-.4.1zM93.7 46.8L83 40.5c-.2-.1-.2-.3-.1-.5s.3-.2.5-.1L94 46.2c.2.1.2.3.1.5 0 .1-.2.2-.4.1zM82.2 64.5c-.1 0-.1 0 0 0L49.5 45.2c-.2-.1-.2-.3-.1-.5s.3-.2.5-.1l32.5 19.2c.2.1.2.3.1.5 0 .2-.2.2-.3.2zM74.7 77.1L42.1 57.9c-.2-.1-.2-.3-.1-.5s.3-.2.5-.1L75 76.5c.2.1.2.3.1.5 0 .1-.2.2-.4.1zM61.3 60.7l-15.5-9.1c-.2-.1-.2-.3-.1-.5s.3-.2.5-.1l15.4 9.1c.2.1.2.3.1.5-.1 0-.3.1-.4.1zM68.1 49.1c-.1 0-.1 0 0 0L52.7 40c-.2-.1-.2-.3-.1-.5s.3-.2.5-.1l15.4 9.1c.2.1.2.3.1.5s-.3.2-.5.1zM78.5 70.7c-.1 0-.1 0 0 0L63.8 62c-.2-.1-.2-.3-.1-.5s.3-.2.5-.1L78.8 70c.2.1.2.3.1.5-.1.3-.3.3-.4.2z"/><defs><path id="SVGID_1_" transform="rotate(-24.292 62.819 111.743)" d="M32 96.3h61.7v30.9H32z"/></defs><clipPath id="SVGID_2_"><use xlink:href="#SVGID_1_" overflow="visible"/></clipPath><g clip-path="url(#SVGID_2_)"><path d="M90 114.5l.1-6.9-49.1-.5-.1 6.9 49.1.5z" fill="#99c3f8"/><path d="M92.2 114.6l.1-6.9H90l-.1 6.9h2.3z" fill="#fbe1cd"/><path d="M92.2 114.5l.1-6.9h1.6c.8 0 1.5.7 1.5 1.6l-.1 3.8c0 .8-.7 1.5-1.6 1.5h-1.5z" fill-rule="evenodd" clip-rule="evenodd" fill="#ff931e"/><path d="M28.4 110.4l6.3-1.6 6.3-1.6v3.4l-.1 3.4-6.3-1.8-6.2-1.8z" fill-rule="evenodd" clip-rule="evenodd" fill="#f5b17a"/><path d="M28.4 110.4l3.9 1.1v-2.2l-3.9 1.1z" fill-rule="evenodd" clip-rule="evenodd" fill="#3e3a39"/><path d="M34.7 108.7l-2.4.6v1.2l8.6.3.1-3.7-6.3 1.6z" fill-rule="evenodd" clip-rule="evenodd" fill="#f7c193"/><path class="st3" d="M89.9 111.4l.1-3.8-49-.6-.1 3.8 49 .6z"/><path d="M90 107.6l-.1 3.8H92.3l.1-3.7h-2.2l-.2-.1z" fill-rule="evenodd" clip-rule="evenodd" fill="#f6f3f2"/><path d="M92.3 107.7l-.1 3.8h3.1v-2.2c0-.8-.7-1.6-1.5-1.6h-1.5z" fill-rule="evenodd" clip-rule="evenodd" fill="#db7f1a"/><path d="M32.3 110.5v-1.2l-3.9 1 3.9.2z" fill-rule="evenodd" clip-rule="evenodd" fill="#424040"/></g><path transform="rotate(-58.548 89.197 38.736)" class="st14" d="M86.6 30.1h5.2v17.4h-5.2z"/><path transform="rotate(-58.548 53.69 56.306)" class="st14" d="M51.1 46.5h5.2v19.6h-5.2z"/></g></switch></svg>